<svg width="209" height="216" viewBox="0 0 209 216" fill="none" xmlns="http://www.w3.org/2000/svg">
<g opacity="0.2">
<ellipse cx="103.914" cy="99.1515" rx="50.0004" ry="50.0763" fill="white"/>
<path fill-rule="evenodd" clip-rule="evenodd" d="M103.857 50.3867C96.5675 50.3867 89.653 51.9963 83.4365 54.8831L84.7671 56.7201L87.0224 56.8425L88.3748 55.526L89.4 56.0378L87.5285 57.8617C87.5285 57.8617 84.9372 57.9141 85.0593 57.9141C85.1902 57.9141 85.2731 59.6987 85.2731 59.6987L88.4141 59.6156L88.7587 58.7583L90.9225 58.6358L91.1755 57.3499L89.8929 57.1356L90.3204 55.9853L91.2976 55.6878L94.696 55.8628L92.8245 57.5642L93.1298 58.8895L95.0842 59.1869L94.9534 56.8032L96.8248 55.8234L100.14 55.4342L104.939 57.5642V59.4013L106.475 59.7905L105.702 61.2383H103.534L102.893 62.8916L97.9416 61.7194L101.837 59.6506L100.354 58.3865L96.9993 58.8064L96.7027 59.1126H96.694L96.6329 59.1826L95.6775 60.1798L94.0809 60.3241L94.203 61.1202L94.7614 61.3564L94.7396 61.6232L93.4396 61.8069L93.348 62.5592L92.109 62.6204L91.8735 61.1202L89.6443 61.8025L85.0899 64.4749L85.6003 66.3601L86.8828 67.1868L89.4261 67.5454V70.4497L90.604 70.2572L91.6902 67.9828L94.4037 67.1255V63.6395L95.9087 62.498L99.5514 63.364L99.2983 65.6559H100.276L102.95 64.3394L103.081 67.3573L105.035 68.5514L104.952 70.3447L103.081 70.9876L103.211 71.5781L105.458 72.606L105.419 73.8394L104.756 73.8919C104.756 73.87 104.756 73.8613 104.756 73.8613L101.92 72.9865L101.798 72.068H101.789L102.623 71.495V70.6596L101.728 70.4365L101.506 71.2107L99.9396 71.4469L99.7869 71.3944V71.4775L99.246 71.5606L98.7967 70.664L98.2863 70.4409H97.1651L96.6591 70.8608V71.7793L97.6144 72.0942L98.5611 72.2254L98.3473 72.3173L97.4923 73.2752L97.104 72.7941L96.2795 72.5797L94.0111 74.7098L94.3077 74.9547L90.9617 76.8093L87.8208 80.094L87.607 81.5505L84.453 83.6325L82.8868 85.2027L83.0613 88.365L80.8976 87.3547L80.9194 85.5089H74.8774L71.7539 87.0879L70.4015 89.5941L69.865 91.5842L70.7374 93.5131L73.1979 93.8192L77.1153 91.1993L77.46 92.4939L76.2603 94.7596L79.2398 95.2714L79.5365 99.8814L83.6154 100.572L86.2067 97.5633L89.3476 98.2062L90.4557 99.7458L93.4658 99.5709L93.5574 98.6742L95.2151 99.479L97.0779 102.427L100.31 102.466L101.501 104.557L101.676 107.116L105.244 108.472L109.738 108.524L111.059 110.685L113.053 111.328L112.678 113.121L110.492 115.903L109.851 122.07L107.879 123.64L104.952 123.548L103.966 125.25L104.699 128.452L101.506 132.541L100.489 134.417L97.4487 135.874L95.455 136.18L95.3722 137.037L96.7638 137.435L96.6024 138.354L95.3416 139.557L96.105 140.523L97.6188 140.563L97.5359 141.735L97.1302 142.885L96.9993 143.821L99.2373 145.706L98.9406 146.686L95.9 146.634L92.8681 143.983L90.508 139.824L90.8439 135.817L89.0553 133.42L89.7751 129.374L88.7194 129.077V120.307C88.7194 120.307 85.7399 118.046 85.5785 118.046C85.404 118.046 84.0036 117.67 84.0036 117.67L83.707 115.999L79.8331 111.144L80.2214 109.399L80.3435 106.543L83.0177 104.666L82.6426 101.473L78.7382 101.176L75.6757 97.677L73.512 97.0865L72.1072 96.8328L72.2818 95.5469L70.4932 95.2932V96.0149L66.0391 94.9127L64.2374 92.1484L64.9616 90.8231L62.1434 86.6855L61.6548 83.6675H60.5075L60.8958 86.6023L62.8502 89.6291L62.6364 90.8231L60.9787 90.5694L58.9458 87.0835V83.0245L58.0907 82.6178C56.2411 87.7789 55.2246 93.3425 55.2246 99.1466C55.2246 126.085 77.0063 147.915 103.866 147.915C119.23 147.915 132.92 140.777 141.837 129.632V128.054L139.882 125.412V121.322L138.399 119.835L138.268 118.12L140.157 114.499L136.567 108.157L136.994 103.844L133.77 103.516L132.579 102.313H130.403L129.303 103.346H125.482L125.36 103.682H123.226L118.345 98.1056L118.384 93.7536L119.2 93.4562L119.492 91.7941H118.345L117.878 90.049L123.532 85.9594V83.0639L126.297 81.5243L127.414 81.638H129.691L131.471 80.6801L137.208 80.2296V83.1645L141.736 84.3148L142.63 84.9578H143.464V83.3569L146.077 83.1033L148.559 84.9578H150.422C149.986 83.5013 149.475 82.071 148.908 80.6845H148.864L147.534 79.2061L147.311 77.1679L147.181 76.9011L145.911 77.5922L145.169 80.4789L143.198 78.3795L143.119 76.3806L141.217 74.7404L140.506 74.0362H138.29L138.992 76.0132L141.658 77.5003L142.124 77.9902L141.544 78.2745L141.575 79.8447L140.275 80.3827L139.175 80.1378L138.473 79.158L140.275 79.2499L140.763 78.5982L136.776 75.8951L136.471 74.7404L134.852 76.2188L133.203 75.8732L130.69 79.1362L130.202 80.4089L128.605 80.562L126.236 80.5708L124.823 79.906L124.404 77.0804L124.915 75.7333L127.323 75.204L129.949 75.7333L130.272 74.2768L129.155 74.01L129.543 71.7443L132.187 71.3244L134.028 68.7045L135.947 68.3896L137.666 68.6345L138.294 68.6432L137.95 66.1764L135.856 67.0337L135.123 65.1879L133.901 65.0261L133.67 63.762L134.665 62.6817L135.733 62.2618C127.174 54.8743 116.041 50.3867 103.857 50.3867ZM79.2268 57.0962C78.6073 57.4636 77.9966 57.8398 77.3945 58.2378L77.5472 58.3209L79.7153 58.7889L79.8899 59.6462L83.3274 59.7687L82.8607 58.6664L79.8113 58.5746L80.5224 57.9098L80.2694 57.0962H79.2268V57.0962ZM75.0999 59.8299L75.017 59.8911L74.9341 60.2192H74.5764C74.3234 60.4116 74.066 60.6084 73.813 60.8009V61.3301H76.3257L76.8536 60.6259V59.8299H75.0999ZM141.597 68.3808C141.178 67.8603 140.755 67.3617 140.314 66.8631L138.831 67.6285L139.053 68.3502L141.597 68.3808ZM75.5972 62.7954C75.5972 62.7954 76.714 62.6029 76.8187 62.6029C76.9103 62.6029 76.8187 63.7226 76.8187 63.7226L74.2972 63.8845L73.8173 63.3028L75.5972 62.7954ZM78.5331 68.6695L79.8768 68.0353L81.0852 68.3196L80.6664 69.951L79.3533 70.3709L78.5331 68.6695ZM85.6352 72.5097V73.5595H82.5858L81.4385 73.2446L81.7221 72.5097L83.1966 71.8974H85.1989V72.5097H85.6352V72.5097ZM87.0486 73.9794V74.9985L86.2852 75.4971L85.3298 75.6721C85.3298 75.6721 85.3298 74.1412 85.3298 73.9794H87.0486V73.9794ZM86.1849 73.5638V72.3523L87.2406 73.3102L86.1849 73.5638ZM86.6604 76.0176V77.0148L85.9275 77.7496H84.309L84.562 76.6299L85.3255 76.5687L85.4869 76.1794L86.6604 76.0176ZM82.612 73.9794H84.3003L82.1321 77.0192L81.2466 76.5293L81.4385 75.2565L82.612 73.9794ZM89.5265 75.6721V76.6606H87.908L87.4587 76.0176V75.0903L87.5808 75.0991L89.5265 75.6721ZM88.0345 74.3074L88.4926 73.8175L89.2735 74.3074L88.654 74.8279L88.0345 74.3074Z" fill="#025E72"/>
</g>
<path d="M93.3831 115.32L82.6708 87.7654L72.2512 115.32H71.3146L58.7292 82.8995C57.8316 80.5544 57.0316 78.9911 56.3291 78.2094C55.6657 77.3886 54.6706 76.7242 53.3438 76.2161V75.6885C58.456 75.923 63.6268 75.923 68.8561 75.6885V76.2161C66.9829 76.6069 65.7926 77.2323 65.2853 78.0921C64.778 78.952 64.817 80.2613 65.4024 82.0201C67.5097 87.9608 70.5927 95.8558 74.6512 105.705H74.7683L82.0269 86.2411L80.9147 83.3098C79.9391 80.8085 79.1 79.1279 78.3976 78.268C77.7342 77.3691 76.8171 76.6851 75.6463 76.2161V75.6885C81.2659 75.923 86.2415 75.923 90.5733 75.6885V76.2161C88.7391 76.6069 87.5684 77.2127 87.0611 78.0335C86.5928 78.8152 86.6903 80.2027 87.3538 82.196C89.266 87.8631 92.2904 95.6995 96.427 105.705H96.5441L104.095 84.5996C105.032 82.2155 105.227 80.3395 104.681 78.9715C104.173 77.6036 102.808 76.6851 100.583 76.2161V75.6885C104.329 75.8839 108.056 75.8839 111.764 75.6885V76.2161C110.281 76.7242 109.051 77.6231 108.076 78.9129C107.139 80.2027 106.281 81.981 105.5 84.2479L94.3197 115.32H93.3831Z" fill="#025E72"/>
<path d="M114.456 82.9776L125.169 110.532L135.588 82.9776H136.525L149.11 115.398C150.008 117.743 150.808 119.306 151.51 120.088C152.174 120.909 153.169 121.573 154.496 122.081V122.609C149.383 122.374 144.213 122.374 138.983 122.609V122.081C140.857 121.69 142.047 121.065 142.554 120.205C143.061 119.345 143.022 118.036 142.437 116.277C140.33 110.336 137.247 102.441 133.188 92.5923H133.071L125.813 112.056L126.925 114.987C127.9 117.489 128.739 119.169 129.442 120.029C130.105 120.928 131.022 121.612 132.193 122.081V122.609C126.574 122.374 121.598 122.374 117.266 122.609V122.081C119.1 121.69 120.271 121.084 120.778 120.264C121.247 119.482 121.149 118.095 120.486 116.101C118.573 110.434 115.549 102.598 111.412 92.5923H111.295L103.744 113.698C102.808 116.082 102.612 117.958 103.159 119.326C103.666 120.694 105.032 121.612 107.256 122.081V122.609C103.51 122.413 99.7831 122.413 96.0758 122.609V122.081C97.5587 121.573 98.788 120.674 99.7636 119.384C100.7 118.095 101.559 116.316 102.339 114.049L113.52 82.9776H114.456Z" fill="#025E72"/>
<path d="M79.213 201.451C76.8041 202.269 74.6034 203.207 72.6472 204.223C70.7118 205.286 68.9898 206.36 67.5798 207.501C67.2209 207.782 66.8775 208.053 66.5393 208.314C66.2219 208.6 65.915 208.876 65.6236 209.147C65.3271 209.418 65.0462 209.674 64.7704 209.924C64.5051 210.184 64.2657 210.45 64.0316 210.695C63.5686 211.2 63.1107 211.633 62.7622 212.081C62.4032 212.524 62.0858 212.915 61.8049 213.264C61.191 214.024 62.0078 214.535 63.3761 214.749C64.7444 214.962 66.5809 214.895 68.2198 214.577C68.4175 214.535 68.6308 214.446 68.8493 214.321C69.073 214.196 69.3331 214.056 69.5933 213.868C69.8586 213.681 70.1395 213.451 70.4413 213.186C70.7483 212.925 71.1021 212.659 71.4714 212.341C72.9542 211.096 74.9936 209.403 78.11 207.725C81.2004 206.026 85.3989 204.427 90.7005 203.155C92.2769 202.77 93.9573 202.415 95.721 202.077L90.1698 198.825C86.2106 199.518 82.5219 200.362 79.213 201.451Z" fill="#A4E0DA"/>
<path d="M205.619 95.7493C204.823 96.6976 203.866 97.8439 202.908 99.1518C202.425 99.8083 201.946 100.501 201.446 101.231C200.937 101.96 200.427 102.731 199.938 103.534C198.819 105.352 197.94 107.384 197.217 109.479C197.248 109.073 197.284 108.661 197.31 108.255C198.497 105.134 199.787 102.21 201.004 99.2039C201.42 98.167 201.852 97.1249 202.253 96.0619C202.622 94.999 202.992 93.9152 203.34 92.8053C203.512 92.2478 203.689 91.685 203.84 91.1171C203.98 90.5491 204.115 89.9708 204.24 89.382C204.485 88.2096 204.74 86.9903 204.885 85.7346C205.187 83.0407 204.974 77.4654 204.11 72.6248C203.949 71.4055 203.678 70.2488 203.47 69.1806C203.241 68.1125 203.059 67.1329 202.851 66.32C202.425 64.6943 202.154 63.6679 202.154 63.6679C202.154 63.6679 201.342 65.0226 200.338 67.2736C199.823 68.4043 199.209 69.7642 198.637 71.2857C198.341 72.0464 198.08 72.8437 197.779 73.6878C197.477 74.5319 197.191 75.4072 196.931 76.3139C196.743 76.9548 196.592 77.6061 196.473 78.2678C196.327 78.9348 196.207 79.607 196.119 80.2895C195.989 81.2431 195.926 82.207 195.874 83.1762C195.791 82.7385 195.708 82.3008 195.62 81.8631C195.718 80.7324 195.838 79.6174 195.999 78.5075C196.119 77.3925 196.254 76.2826 196.405 75.1728C196.483 74.6152 196.561 74.0629 196.639 73.5054L196.827 71.8484C196.951 70.7386 197.087 69.6183 197.191 68.4824C197.264 67.3569 197.326 66.2158 197.368 65.0487C197.425 63.8763 197.388 62.7039 197.316 61.5055C197.232 60.307 197.175 59.0565 196.951 57.8164C196.551 55.1225 194.782 49.8442 192.701 45.3892C192.186 44.2741 191.639 43.2268 191.156 42.2472C190.906 41.7627 190.672 41.2989 190.448 40.8612C190.209 40.434 189.985 40.038 189.782 39.6732C188.945 38.2143 188.419 37.2972 188.419 37.2972C188.419 37.2972 187.992 38.8239 187.618 41.2676C187.441 42.4817 187.217 43.9563 187.061 45.582C186.983 46.3948 186.921 47.2442 186.879 48.1247C186.832 49.0053 186.775 49.938 186.765 50.8811C186.739 52.2202 186.884 53.5541 187.051 54.9245C187.144 55.6071 187.259 56.2845 187.405 56.9566C187.493 57.3579 187.587 57.7643 187.675 58.1655C187.665 58.1447 187.654 58.1186 187.644 58.0978C187.451 57.6966 187.248 57.3058 187.051 56.915C186.411 53.3978 186.01 50.011 185.469 46.6085C185.162 44.3731 184.715 42.1899 184.184 39.9077C183.908 38.777 183.555 37.6619 183.185 36.5104C182.998 35.9372 182.795 35.3589 182.582 34.7805C182.353 34.2125 182.103 33.6394 181.848 33.0662C180.792 30.5443 177.618 25.9903 174.455 22.2335C173.643 21.3112 172.863 20.4202 172.145 19.6021C171.417 18.7893 170.709 18.1015 170.126 17.4971C169.539 16.8979 169.055 16.4133 168.722 16.0746C168.389 15.7307 168.186 15.5587 168.186 15.5587C168.186 15.5587 168.196 15.9391 168.222 16.6477C168.254 17.3564 168.321 18.3724 168.456 19.6073C168.743 22.0615 169.232 25.4484 170.189 29.0906C170.511 30.3984 170.99 31.6594 171.542 32.9099C172.036 34.0927 172.613 35.239 173.248 36.3437C172.905 35.9529 172.567 35.5725 172.228 35.1973C172.124 34.9941 172.025 34.7857 171.927 34.5773C171.438 33.5248 170.964 32.4931 170.491 31.4718C170.022 30.4505 169.596 29.4084 169.154 28.3819C168.701 27.3554 168.248 26.3394 167.801 25.3233C165.954 21.2643 163.946 17.1271 160.71 13.24C159.867 12.1562 158.358 10.765 156.594 9.2279C155.72 8.45153 154.721 7.72205 153.733 6.95089C153.233 6.57052 152.729 6.19536 152.229 5.81499C151.714 5.46067 151.199 5.11156 150.695 4.76245C149.675 4.08508 148.702 3.39208 147.771 2.83454C146.834 2.27701 145.986 1.76638 145.263 1.3339C144.54 0.901426 143.947 0.55753 143.525 0.343897C143.104 0.119843 142.87 0 142.87 0C142.87 0 142.974 0.375159 143.198 1.0369C143.426 1.68822 143.759 2.65217 144.217 3.81934C144.675 4.9813 145.253 6.33604 145.96 7.78458C146.647 9.28001 147.458 10.8797 148.416 12.4897C148.676 12.9535 148.957 13.4068 149.253 13.8497C146.002 11.0151 142.162 8.34732 137.953 6.58094C136.689 6.00778 135.321 5.60656 133.963 5.20535C132.605 4.79372 131.2 4.53319 129.827 4.29871C129.14 4.18408 128.464 4.06945 127.787 3.98608C127.111 3.91834 126.44 3.86103 125.789 3.81413C124.484 3.71513 123.24 3.64218 122.07 3.67345C120.904 3.68387 119.827 3.72034 118.875 3.76202C117.913 3.84018 117.07 3.93397 116.378 4.01734C114.989 4.18408 114.188 4.31434 114.188 4.31434C114.188 4.31434 114.905 4.73119 116.128 5.3773C116.737 5.69514 117.47 6.07551 118.303 6.50278C119.125 6.96131 120.046 7.45631 121.034 7.97216C124.993 10.0616 129.889 12.7659 134.54 14.7407C138.39 16.356 142.474 17.6742 146.34 18.9977C145.809 18.9612 145.279 18.9456 144.758 18.9612C142.958 19.0811 141.319 19.352 139.878 19.7011C138.411 20.0971 137.147 20.5609 136.117 20.9986C135.087 21.4363 134.28 21.8531 133.718 22.1866C133.162 22.5096 132.865 22.7128 132.865 22.7128C132.865 22.7128 133.063 22.7754 133.417 22.8848C133.775 22.989 134.275 23.1662 134.889 23.3902C135.508 23.6091 136.236 23.8644 137.043 24.151C137.854 24.4271 138.702 24.7971 139.613 25.1358C140.066 25.3077 140.529 25.4849 140.997 25.6568C141.455 25.8496 141.912 26.0424 142.376 26.2404C143.291 26.6364 144.233 26.9699 145.086 27.3554C146.803 28.111 148.39 28.7102 149.451 29.0801C153.494 30.3046 157.375 31.1696 161.334 32.368C162.312 32.6806 163.295 33.0089 164.294 33.3632C165.278 33.7332 166.24 34.1604 167.223 34.619C167.712 34.8482 168.212 35.0827 168.701 35.3432C169.18 35.609 169.658 35.8904 170.142 36.1821C170.345 36.3072 170.548 36.4375 170.756 36.5677C171.058 36.9064 171.36 37.2607 171.666 37.615C170.668 36.8908 169.632 36.2238 168.576 35.6663C167.395 35.0723 166.162 34.6294 164.945 34.3428C161.443 33.5717 158.327 33.6654 156.074 33.9937C154.956 34.1448 154.066 34.3376 153.452 34.4887C152.843 34.6346 152.495 34.7649 152.495 34.7649C152.495 34.7649 152.677 34.8691 152.973 35.0827C153.275 35.2963 153.717 35.5986 154.253 35.9737C154.789 36.3541 155.445 36.7709 156.131 37.2764C156.823 37.7818 157.572 38.3341 158.353 38.9073C161.448 41.2364 164.908 44.0761 166.781 45.3423C167.686 45.8998 168.571 46.4417 169.44 46.9784C170.314 47.5151 171.229 48.0049 172.104 48.5207C173.836 49.5629 175.652 50.5424 177.358 51.6783C180.038 53.377 182.649 55.331 185.011 57.8893C185.199 58.2697 185.386 58.6449 185.568 59.0305C185.339 58.7491 185.1 58.4729 184.855 58.2072C184.403 57.7122 183.934 57.2328 183.451 56.7899C182.509 55.8833 181.416 55.1382 180.308 54.5442C179.517 54.1273 178.758 53.7522 177.988 53.4447C177.213 53.1425 176.458 52.8872 175.74 52.6736C174.304 52.2463 173.009 51.9753 171.864 51.8399C169.611 51.5533 168.202 51.6367 168.202 51.6367C168.202 51.6367 168.737 52.2671 169.585 53.2624C169.799 53.5125 170.033 53.7834 170.283 54.0752C170.522 54.3774 170.772 54.6953 171.037 55.0287C171.562 55.7009 172.166 56.4147 172.764 57.1807C175.157 60.2341 177.66 63.9284 179.174 65.6218C179.907 66.393 180.563 67.1746 181.291 67.9093C182.009 68.6492 182.748 69.3734 183.44 70.1081C184.163 70.8428 184.881 71.5671 185.594 72.2913C186.291 73.0312 186.973 73.7816 187.67 74.5475L188.71 75.7147C189.038 76.1107 189.361 76.5171 189.683 76.9339C190.328 77.7624 190.968 78.6117 191.582 79.5132C192.139 80.3938 192.696 81.3108 193.216 82.28C193.289 82.6708 193.356 83.0668 193.429 83.4628C193.055 82.6499 192.623 81.8631 192.165 81.118C191.816 80.5605 191.447 80.0238 191.057 79.5132C190.641 79.013 190.204 78.544 189.746 78.1063C189.095 77.4915 188.445 76.9339 187.8 76.4233C187.16 75.9179 186.473 75.475 185.844 75.0738C184.559 74.2818 183.388 73.6721 182.348 73.2292C180.24 72.3539 178.851 72.0621 178.851 72.0621C178.851 72.0621 179.205 72.8072 179.767 73.99C180.053 74.5788 180.334 75.2978 180.677 76.0794C181.01 76.8662 181.421 77.7103 181.754 78.617C183.294 82.181 184.642 86.4328 185.677 88.4649C186.156 89.408 186.593 90.3355 187.098 91.2421C187.353 91.6955 187.602 92.1488 187.852 92.5969C188.096 93.0502 188.336 93.4983 188.575 93.9412C189.075 94.8426 189.574 95.7389 190.068 96.6247C190.542 97.5261 191 98.4327 191.468 99.3602C192.779 101.997 193.944 104.795 194.688 107.906C194.657 108.307 194.631 108.713 194.595 109.114C194.22 107.035 193.564 105.045 192.534 103.341C192.071 102.575 191.587 101.861 191.104 101.2C190.604 100.538 190.073 99.9334 189.569 99.3758C188.544 98.266 187.576 97.3646 186.692 96.6559C184.897 95.2439 183.638 94.5925 183.638 94.5925C183.638 94.5925 183.778 95.4106 184.002 96.7028C184.122 97.3489 184.194 98.1201 184.325 98.9694C184.429 99.8187 184.611 100.746 184.694 101.71C184.793 102.674 184.933 103.68 185.027 104.675C185.126 105.675 185.225 106.665 185.318 107.603C185.391 108.541 185.48 109.432 185.584 110.224C185.682 111.021 185.75 111.714 185.865 112.272C186.666 116.414 187.805 120.255 188.612 124.314C189.158 127.117 189.522 130.03 189.439 133.13C189.314 133.484 189.194 133.844 189.064 134.198C189.215 132.208 189.075 130.233 188.57 128.43C188.107 126.716 187.425 125.158 186.77 123.829C186.073 122.49 185.339 121.354 184.684 120.442C184.033 119.53 183.409 118.827 182.982 118.363C182.55 117.894 182.29 117.649 182.29 117.649C182.29 117.649 182.212 118.473 182.082 119.775C182.004 120.427 181.916 121.198 181.812 122.047C181.713 122.896 181.557 123.813 181.432 124.777C181.146 126.695 180.797 128.753 180.469 130.608C180.329 131.546 180.147 132.411 180.027 133.203C179.907 133.99 179.829 134.698 179.767 135.256C179.439 139.455 179.522 143.473 179.2 147.584C178.981 150.314 178.586 153.102 177.754 155.942C177.54 156.249 177.337 156.557 177.124 156.859C177.291 156.364 177.441 155.864 177.577 155.374C177.904 154.097 178.061 152.795 178.076 151.544C178.055 149.746 177.868 148.1 177.561 146.625C177.244 145.145 176.859 143.869 176.463 142.811C175.647 140.685 174.903 139.482 174.903 139.482C174.903 139.482 174.606 140.253 174.133 141.472C173.633 142.681 172.972 144.353 172.166 146.115C171.791 147.011 171.354 147.917 170.933 148.819C170.527 149.736 170.09 150.622 169.684 151.471C169.487 151.898 169.294 152.315 169.112 152.716C168.919 153.112 168.737 153.488 168.571 153.852C168.233 154.571 167.978 155.238 167.775 155.765C166.344 159.725 165.335 163.601 163.92 167.478C163.014 169.958 161.932 172.444 160.455 174.861C160.179 175.091 159.903 175.32 159.628 175.544C159.846 175.21 160.059 174.872 160.262 174.538C160.918 173.392 161.422 172.183 161.776 170.985C162.718 167.52 162.76 164.383 162.562 162.137C162.349 159.876 161.953 158.516 161.953 158.516C161.953 158.516 161.459 159.177 160.673 160.22C160.293 160.756 159.794 161.34 159.274 162.017C159.008 162.351 158.733 162.705 158.452 163.065C158.16 163.419 157.853 163.784 157.546 164.154C157.239 164.529 156.927 164.909 156.61 165.295L155.632 166.425C155.309 166.806 154.987 167.186 154.669 167.561C154.347 167.926 154.024 168.291 153.717 168.64C153.41 168.999 153.114 169.348 152.828 169.682C152.541 170.01 152.266 170.328 152 170.625C151.485 171.229 151.054 171.787 150.726 172.246C148.281 175.664 146.257 179.108 143.843 182.448C142.349 184.506 140.711 186.517 138.728 188.367C138.697 188.383 138.666 188.393 138.635 188.409C139.061 187.945 139.452 187.455 139.779 186.934C140.118 186.413 140.419 185.892 140.685 185.387C140.945 184.866 141.174 184.355 141.371 183.865C141.767 182.886 142.053 181.989 142.245 181.223C142.62 179.665 142.682 178.665 142.682 178.665C142.682 178.665 142.193 179.009 141.418 179.546C140.627 180.067 139.55 180.78 138.395 181.541C136.091 183.037 133.354 184.652 132.074 185.631C131.492 186.111 130.924 186.575 130.363 187.038C129.806 187.507 129.265 187.992 128.729 188.482C127.636 189.409 126.591 190.42 125.472 191.337C124.499 192.171 123.485 192.968 122.397 193.713C120.061 194.26 117.741 194.729 115.462 195.13C115.15 195.188 114.838 195.235 114.526 195.287L119.302 198.085C120.176 197.902 121.055 197.71 121.939 197.522C122.33 197.428 122.72 197.334 123.11 197.241C124.499 197.423 125.862 197.642 127.231 197.835C128.75 198.085 130.269 198.246 131.856 198.397C132.641 198.449 133.443 198.476 134.265 198.486C135.087 198.502 135.924 198.47 136.777 198.387C138.63 198.251 142.277 197.277 145.424 196.131C146.985 195.563 148.405 194.974 149.451 194.542C150.481 194.073 151.132 193.781 151.132 193.781C151.132 193.781 150.138 193.369 148.504 192.931C147.682 192.697 146.699 192.447 145.601 192.233C145.055 192.124 144.477 192.03 143.879 191.941C143.27 191.842 142.641 191.759 141.991 191.697C141.299 191.634 140.586 191.629 139.873 191.655C139.92 191.634 139.961 191.613 140.008 191.598C142.859 191.316 145.638 191.123 148.437 190.863C152.89 190.436 157.432 189.805 162.172 187.981C162.806 187.737 163.576 187.367 164.445 186.918C164.877 186.694 165.34 186.455 165.813 186.189C166.282 185.908 166.766 185.616 167.265 185.319C167.764 185.011 168.274 184.694 168.795 184.371C169.304 184.037 169.82 183.678 170.335 183.323C170.85 182.964 171.365 182.604 171.88 182.245C172.379 181.864 172.879 181.489 173.368 181.119C173.857 180.744 174.335 180.374 174.798 180.014C175.256 179.65 175.688 179.28 176.11 178.931C176.937 178.227 177.717 177.602 178.326 177.024C179.564 175.888 180.35 175.163 180.35 175.163C180.35 175.163 178.768 175.085 176.302 175.247C173.82 175.398 170.428 175.731 166.75 176.513C165.012 176.883 163.275 177.467 161.579 178.175C161.865 177.941 162.151 177.696 162.432 177.456C165.194 176.341 167.905 175.361 170.626 174.304C174.793 172.678 178.976 170.828 183.039 167.791C183.596 167.389 184.22 166.816 184.938 166.154C185.292 165.816 185.667 165.456 186.057 165.081C186.437 164.695 186.822 164.279 187.217 163.851C188.013 162.997 188.846 162.075 189.631 161.1C190.432 160.136 191.234 159.151 191.957 158.161C193.45 156.213 194.709 154.295 195.63 152.894C196.514 151.466 197.071 150.559 197.071 150.559C197.071 150.559 195.531 150.908 193.205 151.732C192.035 152.138 190.635 152.643 189.147 153.279C187.649 153.91 186.005 154.639 184.345 155.52C182.665 156.395 181.062 157.51 179.533 158.745C179.757 158.427 179.98 158.109 180.199 157.786C182.639 155.89 185.069 154.165 187.483 152.352C191.062 149.668 194.579 146.75 197.685 142.743C198.117 142.212 198.575 141.493 199.084 140.659C199.584 139.82 200.151 138.877 200.666 137.83C201.748 135.756 202.81 133.364 203.71 131.082C204.141 129.936 204.578 128.831 204.927 127.799C205.265 126.763 205.577 125.819 205.838 125.022C206.098 124.225 206.264 123.558 206.399 123.105C206.529 122.646 206.597 122.391 206.597 122.391C206.597 122.391 206.254 122.573 205.655 122.938C205.052 123.303 204.23 123.85 203.189 124.553C202.154 125.257 200.968 126.122 199.704 127.132C198.393 128.133 197.066 129.295 195.661 130.571C194.204 131.937 192.888 133.536 191.702 135.235C191.832 134.875 191.952 134.516 192.076 134.156C193.986 131.567 195.947 129.17 197.862 126.684C200.567 123.131 203.195 119.39 205.12 114.705C205.369 114.075 205.666 113.267 205.926 112.329C206.181 111.391 206.441 110.323 206.701 109.182C206.941 108.041 207.143 106.827 207.357 105.592C207.56 104.357 207.69 103.101 207.846 101.887C208.007 100.673 208.049 99.4905 208.137 98.4067C208.205 97.3229 208.293 96.3329 208.304 95.494C208.324 93.8162 208.34 92.7532 208.34 92.7532C208.34 92.7532 207.19 93.8526 205.619 95.7493ZM197.805 99.5999C197.841 98.9277 197.929 97.9742 198.039 96.8174C198.112 96.2391 198.122 95.619 198.174 94.9573C198.21 94.2955 198.294 93.6025 198.351 92.873C198.387 92.5135 198.424 92.1436 198.465 91.7684C198.491 91.3985 198.517 91.0181 198.543 90.6377C198.595 89.877 198.663 89.1006 198.731 88.3242C198.767 87.9334 198.798 87.5426 198.835 87.1571C198.856 86.7715 198.876 86.3859 198.902 86.0003C198.939 85.2292 199.001 84.4736 199.084 83.7441C199.298 82.2904 199.49 80.9617 199.75 79.831C200.011 78.7055 200.292 77.7781 200.52 77.158C200.619 76.8454 200.723 76.6109 200.791 76.4494C200.859 76.293 200.895 76.2097 200.895 76.2097L201.041 76.2878C201.041 76.2878 201.056 76.6995 201.046 77.3977C201.035 77.7468 201.02 78.1688 201.004 78.6534C200.983 79.1276 200.963 79.6747 200.937 80.2583C200.921 80.8471 200.879 81.4723 200.843 82.1393C200.786 82.8062 200.708 83.5045 200.619 84.2183C200.531 84.9322 200.406 85.6564 200.292 86.3963C200.182 87.131 200.021 87.8918 199.907 88.6473C199.646 90.1583 199.475 91.6642 199.204 93.0763C198.96 94.4935 198.783 95.8014 198.564 96.9269C198.361 98.0471 198.19 98.985 198.075 99.6468C197.961 100.303 197.893 100.673 197.893 100.673L197.747 100.642C197.737 100.652 197.763 100.267 197.805 99.5999ZM190.427 50.7404C190.443 50.4122 190.479 50.1569 190.5 49.9849C190.526 49.813 190.537 49.7244 190.537 49.7244L190.698 49.7609C190.698 49.7609 190.812 50.1569 191 50.829C191.098 51.1573 191.192 51.5741 191.307 52.0483C191.411 52.512 191.535 53.0487 191.665 53.6167C191.806 54.1898 191.931 54.8047 192.076 55.456C192.227 56.1021 192.316 56.8055 192.425 57.5142C192.529 58.228 192.602 58.9627 192.69 59.7026C192.779 60.4425 192.852 61.2085 192.93 61.9692C193.075 63.4959 193.32 64.9913 193.44 66.4294C193.585 67.8624 193.762 69.1702 193.851 70.3165C193.955 71.4524 194.043 72.4008 194.106 73.0677C194.168 73.7294 194.204 74.1098 194.204 74.1098L194.054 74.115C194.054 74.115 193.975 73.7399 193.84 73.0833C193.695 72.4268 193.523 71.4837 193.32 70.3426C193.237 69.7694 193.081 69.165 192.951 68.5137C192.81 67.8624 192.701 67.1746 192.566 66.4607C192.451 65.7417 192.3 65.007 192.144 64.2619C191.993 63.5115 191.848 62.7508 191.712 61.9796C191.577 61.2085 191.411 60.4477 191.244 59.6974C191.072 58.9471 190.937 58.1968 190.823 57.4725C190.729 56.743 190.635 56.05 190.557 55.3935C190.484 54.7317 190.438 54.1065 190.412 53.5281C190.37 52.3557 190.386 51.3918 190.427 50.7404ZM173.675 26.9699C173.675 26.9699 173.883 27.3242 174.242 27.9234C174.419 28.2204 174.632 28.5851 174.871 29.002C175.105 29.4136 175.366 29.9034 175.631 30.4193C175.912 30.9403 176.193 31.4978 176.5 32.0918C176.801 32.6859 177.129 33.2955 177.4 33.9677C177.686 34.6294 177.946 35.3224 178.222 36.0206C178.487 36.724 178.799 37.4118 179.07 38.1309C179.616 39.569 180.214 40.9654 180.75 42.2889C181.271 43.6176 181.76 44.8577 182.181 45.9259C182.582 46.9941 182.92 47.8851 183.154 48.5155C183.388 49.1408 183.523 49.4951 183.523 49.4951L183.383 49.542C183.383 49.542 183.211 49.1981 182.904 48.6041C182.587 48.0153 182.197 47.1347 181.671 46.0978C181.411 45.582 181.125 45.0245 180.823 44.4357C180.516 43.8469 180.235 43.206 179.918 42.5494C179.262 41.2624 178.565 39.8764 177.899 38.4644C177.54 37.7714 177.181 37.0836 176.827 36.401C176.469 35.7184 176.146 35.0254 175.839 34.3637C175.22 33.0506 174.746 31.7792 174.393 30.6746C174.054 29.5595 173.768 28.6685 173.654 28.012C173.581 27.6889 173.555 27.4336 173.529 27.2617C173.508 27.0897 173.498 26.9959 173.498 26.9959L173.675 26.9699ZM151.215 9.5197C151.215 9.5197 151.511 9.81149 152.011 10.3013C152.255 10.5462 152.557 10.8432 152.9 11.1819C153.228 11.5258 153.634 11.8905 154.024 12.323C154.43 12.7502 154.846 13.2244 155.299 13.7194C155.746 14.2144 156.209 14.7355 156.667 15.2826C157.135 15.8193 157.552 16.4445 158.004 17.0437C158.447 17.6534 158.915 18.2526 159.378 18.857C160.314 20.0555 161.214 21.306 162.099 22.421C162.983 23.5361 163.743 24.6512 164.435 25.5526C165.132 26.4488 165.683 27.2304 166.074 27.7775C166.459 28.3194 166.682 28.632 166.682 28.632L166.557 28.7154C166.557 28.7154 166.303 28.4288 165.855 27.9286C165.626 27.6785 165.361 27.3711 165.054 27.0168C164.737 26.6729 164.383 26.2821 163.993 25.8548C163.608 25.4223 163.191 24.9586 162.749 24.4636C162.525 24.2187 162.307 23.9582 162.078 23.6872C161.844 23.4319 161.605 23.1662 161.36 22.9004C160.876 22.3585 160.382 21.7958 159.872 21.2278C159.622 20.936 159.367 20.6442 159.118 20.3525L158.332 19.4979C157.807 18.9196 157.281 18.3412 156.766 17.7732C156.251 17.1949 155.746 16.6321 155.257 16.0902C154.316 14.9856 153.546 13.8497 152.895 12.9014C152.25 11.953 151.761 11.1298 151.475 10.5305C151.319 10.2388 151.225 9.99386 151.158 9.83233C151.095 9.6708 151.059 9.58222 151.059 9.58222L151.215 9.5197ZM140.768 13.7403C140.06 13.3964 139.394 13.0577 138.765 12.7242C138.125 12.4116 137.521 12.1198 136.96 11.828C135.836 11.2548 134.889 10.6921 134.088 10.2856C132.501 9.43633 131.637 8.85795 131.637 8.85795C131.637 8.85795 132.652 8.99864 134.426 9.42069C135.321 9.61349 136.366 9.9678 137.579 10.3899C138.182 10.6035 138.827 10.838 139.498 11.1089C140.159 11.4007 140.856 11.7238 141.574 12.0677C144.477 13.4276 147.958 15.6421 151.017 17.8097C154.055 20.0138 156.657 22.2022 158.035 23.3537C156.584 22.2908 153.712 20.4827 150.476 18.6642C147.214 16.8926 143.609 15.0742 140.768 13.7403ZM164.45 30.9924C164.45 30.9924 164.138 30.7996 163.587 30.4609C163.04 30.117 162.265 29.6377 161.292 29.1375C160.319 28.6372 159.222 28.0328 157.989 27.4857C156.745 26.9542 155.46 26.3707 154.123 25.9225C153.452 25.6985 152.786 25.4849 152.13 25.3025C151.47 25.1201 150.845 24.9221 150.211 24.7658C149.586 24.5991 148.983 24.4219 148.421 24.25C147.854 24.078 147.323 23.9269 146.834 23.7654C146.34 23.6351 145.877 23.5101 145.471 23.4058C145.065 23.2964 144.711 23.2026 144.42 23.1245C143.837 22.9682 143.494 22.8744 143.494 22.8744L143.478 22.7181C143.478 22.7181 143.562 22.7024 143.713 22.6712C143.869 22.6399 144.098 22.593 144.394 22.5722C144.987 22.4992 145.851 22.4888 146.912 22.5513C147.963 22.6295 149.17 22.8639 150.476 23.2183C151.126 23.4058 151.798 23.6299 152.448 23.9217C153.109 24.1978 153.78 24.474 154.451 24.771L155.455 25.2087C155.778 25.3702 156.105 25.537 156.423 25.6985C157.063 26.032 157.692 26.3654 158.306 26.6833C158.608 26.85 158.91 27.0116 159.201 27.1731C159.487 27.345 159.763 27.5118 160.028 27.6889C160.564 28.038 161.069 28.3663 161.532 28.6685C161.995 28.9811 162.427 29.2625 162.791 29.523C163.155 29.794 163.467 30.0337 163.717 30.2369C164.232 30.6381 164.523 30.8674 164.523 30.8674L164.45 30.9924ZM180.75 51.1729C180.75 51.1729 180.495 50.9072 180.053 50.4382C179.606 49.9693 178.987 49.3023 178.206 48.5416C177.4 47.8017 176.453 46.9576 175.449 46.0718C174.413 45.212 173.269 44.3575 172.135 43.5395C171.568 43.133 170.959 42.7683 170.376 42.414C169.788 42.0597 169.211 41.7262 168.67 41.3823C168.134 41.0332 167.582 40.7258 167.083 40.4079C166.578 40.0953 166.1 39.8139 165.668 39.5325C165.226 39.2772 164.841 38.9958 164.471 38.8031C164.107 38.5946 163.784 38.4123 163.519 38.2612C162.994 37.9589 162.687 37.7818 162.687 37.7818L162.708 37.6307C162.708 37.6307 162.791 37.6359 162.952 37.6463C163.108 37.6567 163.347 37.6724 163.639 37.7245C164.227 37.8183 165.096 38.0058 166.068 38.3758C167.041 38.7509 168.17 39.272 169.341 39.9546C169.908 40.3193 170.47 40.731 171.037 41.1686C171.604 41.6063 172.187 42.044 172.759 42.5078C173.867 43.4457 174.96 44.4305 175.969 45.3788C176.443 45.879 176.921 46.3427 177.343 46.8169C177.769 47.2911 178.175 47.7392 178.55 48.1508C179.273 49.0001 179.835 49.7348 180.23 50.2559C180.625 50.7769 180.849 51.0687 180.849 51.0687L180.75 51.1729ZM191.072 74.98C191.072 74.98 190.895 74.6569 190.589 74.089C190.282 73.521 189.845 72.7134 189.309 71.7703C188.768 70.8272 188.039 69.7746 187.311 68.6596C186.588 67.5393 185.672 66.4242 184.798 65.3352C184.351 64.7933 183.914 64.2566 183.419 63.7721C182.941 63.2771 182.467 62.8081 182.03 62.3339C181.588 61.865 181.198 61.3908 180.782 60.9584C180.376 60.5259 179.986 60.1299 179.637 59.7443C179.288 59.3743 178.961 59.0252 178.674 58.723C178.388 58.4156 178.144 58.1499 177.92 57.9362C177.488 57.509 177.233 57.2589 177.233 57.2589L177.296 57.1182C177.296 57.1182 177.374 57.1442 177.525 57.1963C177.676 57.2484 177.899 57.3266 178.17 57.4569C178.737 57.6913 179.47 58.129 180.318 58.7439C180.74 59.0513 181.193 59.4056 181.661 59.8016C182.129 60.1976 182.608 60.6353 183.055 61.1355C183.497 61.6409 183.945 62.1776 184.382 62.756C184.819 63.324 185.277 63.8971 185.667 64.512C186.078 65.1112 186.489 65.7208 186.884 66.3252C187.285 66.9297 187.665 67.5341 187.992 68.1385C188.32 68.7429 188.658 69.3213 188.95 69.8893C189.231 70.4572 189.532 70.9887 189.751 71.4993C190.198 72.5206 190.573 73.3699 190.807 73.9743C191.052 74.5788 191.192 74.9227 191.192 74.9227L191.072 74.98ZM194.631 100.694C194.631 100.694 194.548 100.335 194.402 99.7041C194.262 99.0736 194.054 98.1774 193.788 97.1249C193.518 96.0723 193.096 94.8635 192.69 93.5869C192.295 92.3103 191.718 90.992 191.161 89.705C190.864 89.0641 190.609 88.4284 190.261 87.8292C189.933 87.2248 189.6 86.6412 189.303 86.0681C189.007 85.4949 188.731 84.9374 188.481 84.4059C188.206 83.8796 187.946 83.3898 187.701 82.9313C187.462 82.4832 187.238 82.0559 187.04 81.6912C186.848 81.3212 186.676 80.9982 186.536 80.7324C186.234 80.2062 186.057 79.8935 186.057 79.8935L186.156 79.7737C186.156 79.7737 186.229 79.8206 186.359 79.9092C186.489 80.003 186.687 80.1332 186.915 80.3312C187.384 80.7116 187.961 81.3369 188.632 82.1497C189.277 82.973 190.032 83.989 190.62 85.1875C190.916 85.7919 191.202 86.4328 191.468 87.0997C191.603 87.4332 191.738 87.7719 191.874 88.1054C191.993 88.4493 192.108 88.7932 192.227 89.1371C192.467 89.8249 192.696 90.5179 192.919 91.2109C193.029 91.5548 193.133 91.8987 193.242 92.2426C193.33 92.5865 193.414 92.9252 193.502 93.2586C193.658 93.9308 193.83 94.5769 193.955 95.2022C194.074 95.8274 194.225 96.4162 194.298 96.9685C194.459 98.0732 194.589 98.9902 194.652 99.6416C194.725 100.288 194.766 100.658 194.766 100.658L194.631 100.694ZM189.293 107.478C189.179 106.978 189.069 106.509 188.971 106.103C188.877 105.691 188.794 105.337 188.726 105.04C188.596 104.451 188.507 104.102 188.507 104.102L188.632 104.013C188.632 104.013 188.69 104.076 188.794 104.201C188.898 104.326 189.049 104.503 189.205 104.758C189.543 105.248 189.959 106.009 190.391 106.973C190.833 107.942 191.192 109.114 191.499 110.433C191.645 111.094 191.744 111.787 191.811 112.506C191.884 113.22 191.967 113.945 192.024 114.674C192.103 116.123 192.191 117.602 192.155 118.978C192.129 119.671 192.129 120.338 192.087 120.974C192.061 121.615 191.988 122.209 191.936 122.761C191.806 123.871 191.728 124.798 191.598 125.434C191.483 126.075 191.421 126.439 191.421 126.439L191.27 126.434C191.27 126.434 191.291 126.07 191.333 125.423C191.39 124.783 191.385 123.86 191.4 122.771C191.421 121.687 191.353 120.416 191.281 119.072C191.223 117.738 191.02 116.31 190.833 114.924C190.734 114.231 190.583 113.538 190.438 112.871C190.292 112.204 190.146 111.558 190.006 110.922C189.86 110.292 189.725 109.677 189.61 109.099C189.512 108.531 189.397 107.989 189.293 107.478ZM181.562 149.408C181.76 148.793 182.03 147.912 182.337 146.87C182.639 145.828 182.904 144.577 183.211 143.275C183.466 141.951 183.716 140.555 183.872 139.153C183.94 138.45 184.007 137.752 184.038 137.074C184.09 136.397 184.09 135.725 184.122 135.079C184.153 134.432 184.194 133.812 184.246 133.224C184.293 132.635 184.299 132.072 184.34 131.556C184.366 131.046 184.392 130.571 184.413 130.155C184.444 129.738 184.449 129.368 184.455 129.066C184.47 128.461 184.475 128.102 184.475 128.102L184.621 128.05C184.621 128.05 184.658 128.128 184.725 128.268C184.788 128.414 184.892 128.628 184.98 128.915C185.084 129.196 185.188 129.55 185.292 129.962C185.381 130.373 185.469 130.842 185.542 131.358C185.682 132.395 185.786 133.651 185.693 134.99C185.641 135.662 185.573 136.366 185.454 137.074C185.329 137.778 185.204 138.497 185.063 139.216C184.814 140.659 184.413 142.066 184.064 143.41C183.856 144.067 183.669 144.708 183.456 145.307C183.237 145.906 183.055 146.485 182.847 146.995C182.426 148.027 182.077 148.887 181.806 149.481C181.536 150.075 181.369 150.403 181.369 150.403L181.229 150.356C181.229 150.361 181.349 150.017 181.562 149.408ZM165.288 170.49C165.387 170.349 165.533 170.146 165.709 169.87C166.063 169.328 166.568 168.562 167.14 167.639C167.702 166.707 168.306 165.586 168.945 164.414C169.533 163.195 170.173 161.939 170.683 160.621C170.938 159.964 171.188 159.313 171.406 158.667C171.63 158.026 171.807 157.369 172.02 156.76C172.223 156.145 172.442 155.567 172.639 155.009C172.832 154.446 172.998 153.915 173.175 153.43C173.337 152.946 173.493 152.498 173.623 152.102C173.748 151.7 173.857 151.346 173.945 151.054C174.122 150.476 174.231 150.137 174.231 150.137L174.387 150.127C174.387 150.127 174.403 150.21 174.424 150.366C174.445 150.523 174.486 150.757 174.497 151.054C174.538 151.648 174.538 152.534 174.393 153.566C174.237 154.592 174.023 155.843 173.571 157.104C173.342 157.734 173.082 158.391 172.78 159.047C172.478 159.699 172.161 160.35 171.833 161.001C171.209 162.325 170.449 163.575 169.747 164.768C169.383 165.357 169.018 165.915 168.654 166.436C168.285 166.957 167.947 167.452 167.614 167.9C166.927 168.781 166.36 169.51 165.938 170.005C165.735 170.26 165.564 170.453 165.449 170.578C165.335 170.708 165.272 170.776 165.272 170.776L165.148 170.693C165.137 170.703 165.189 170.63 165.288 170.49ZM144.92 185.246C145.409 184.824 146.101 184.225 146.907 183.5C147.693 182.745 148.593 181.854 149.519 180.89C150.414 179.879 151.376 178.853 152.219 177.717C152.646 177.154 153.062 176.596 153.447 176.039C153.821 175.471 154.191 174.913 154.55 174.371C154.919 173.845 155.273 173.34 155.616 172.855C155.954 172.365 156.256 171.902 156.558 171.48C156.834 171.052 157.125 170.677 157.344 170.323C157.572 169.969 157.77 169.661 157.937 169.406C158.264 168.9 158.457 168.598 158.457 168.598L158.608 168.629C158.608 168.629 158.597 168.713 158.582 168.869C158.561 169.025 158.535 169.26 158.467 169.552C158.342 170.135 158.108 170.99 157.692 171.943C157.26 172.886 156.719 174.028 155.944 175.122C155.549 175.669 155.122 176.221 154.659 176.774C154.201 177.326 153.712 177.857 153.218 178.399C152.255 179.499 151.189 180.504 150.185 181.453C149.68 181.927 149.175 182.354 148.681 182.76C148.187 183.162 147.719 183.542 147.287 183.891C146.387 184.548 145.638 185.095 145.096 185.454C144.561 185.829 144.243 186.022 144.243 186.022L144.144 185.908C144.144 185.897 144.436 185.673 144.92 185.246ZM125.722 193.369C126.117 193.156 126.689 192.874 127.34 192.483C127.995 192.093 128.745 191.629 129.535 191.134C130.311 190.602 131.127 190.04 131.913 189.461C132.303 189.175 132.678 188.846 133.032 188.534C133.391 188.216 133.734 187.903 134.082 187.622C134.436 187.346 134.78 187.08 135.107 186.825C135.435 186.575 135.742 186.33 136.044 186.121C136.33 185.902 136.611 185.715 136.845 185.538C137.095 185.371 137.303 185.22 137.475 185.084C137.828 184.829 138.042 184.678 138.042 184.678L138.177 184.751C138.177 184.751 138.12 184.985 137.943 185.376C137.771 185.777 137.459 186.304 137.001 186.882C136.543 187.46 135.95 188.112 135.222 188.727C134.842 189.013 134.436 189.294 134.004 189.56C133.573 189.831 133.136 190.102 132.699 190.378C131.819 190.905 130.914 191.405 130.045 191.848C129.608 192.061 129.187 192.259 128.771 192.436C128.36 192.614 127.969 192.78 127.61 192.931C126.887 193.239 126.273 193.447 125.841 193.593C125.41 193.739 125.165 193.822 125.165 193.822L125.097 193.692C125.097 193.703 125.326 193.583 125.722 193.369ZM140.003 193.911C140.804 193.984 141.455 194.067 141.897 194.172C142.339 194.271 142.578 194.37 142.578 194.37L142.532 194.526C142.532 194.526 142.245 194.604 141.772 194.734C141.538 194.797 141.252 194.865 140.919 194.932C140.591 194.995 140.222 195.078 139.826 195.146C139.426 195.229 138.999 195.292 138.546 195.37C138.099 195.453 137.62 195.505 137.131 195.537C136.642 195.568 136.138 195.578 135.622 195.584C135.107 195.584 134.592 195.631 134.067 195.631C133.016 195.662 131.975 195.73 130.997 195.782C130.019 195.823 129.104 195.86 128.318 195.891C127.538 195.938 126.877 195.948 126.419 195.974C125.961 195.99 125.696 196 125.696 196L125.691 195.849C125.691 195.849 125.951 195.797 126.409 195.709C126.861 195.604 127.522 195.521 128.308 195.354C128.703 195.281 129.13 195.203 129.582 195.12C130.04 195.047 130.513 194.969 131.013 194.885C132.001 194.703 133.063 194.552 134.129 194.411C134.66 194.323 135.196 194.234 135.721 194.146C136.247 194.052 136.772 193.984 137.277 193.937C138.276 193.849 139.207 193.854 140.003 193.911ZM164.95 180.666C166.079 180.379 166.989 180.145 167.65 180.067C167.978 180.009 168.233 179.999 168.41 179.983C168.581 179.973 168.675 179.968 168.675 179.968V180.134C168.675 180.134 168.311 180.327 167.686 180.65C167.379 180.812 167.005 181.004 166.573 181.223C166.146 181.432 165.652 181.677 165.122 181.911C164.591 182.172 164.019 182.422 163.41 182.703C162.812 182.984 162.146 183.235 161.48 183.495C160.803 183.75 160.111 183.99 159.404 184.23C158.686 184.449 157.957 184.699 157.24 184.949C155.814 185.47 154.336 185.923 152.999 186.408C151.647 186.856 150.377 187.273 149.29 187.632C148.208 187.976 147.297 188.263 146.657 188.466C146.028 188.674 145.658 188.773 145.658 188.773L145.622 188.628C145.622 188.628 145.981 188.492 146.59 188.211C147.198 187.929 148.083 187.565 149.155 187.116C149.685 186.882 150.258 186.632 150.861 186.366C151.465 186.09 152.13 185.861 152.786 185.553C154.108 184.97 155.554 184.386 156.969 183.756C157.677 183.433 158.41 183.146 159.107 182.818C159.804 182.484 160.502 182.187 161.178 181.916C162.562 181.406 163.826 180.963 164.95 180.666ZM180.449 162.226C181.64 161.366 182.733 160.595 183.737 160.006C184.746 159.428 185.563 158.959 186.177 158.703C186.473 158.563 186.718 158.479 186.884 158.417C187.046 158.359 187.134 158.328 187.134 158.328L187.181 158.484C187.181 158.484 186.879 158.766 186.374 159.25C186.119 159.485 185.813 159.777 185.464 160.105C185.1 160.412 184.694 160.788 184.246 161.157C183.804 161.553 183.32 161.949 182.816 162.382C182.306 162.809 181.744 163.236 181.172 163.664C180.594 164.091 179.996 164.513 179.372 164.93C178.742 165.336 178.113 165.774 177.488 166.212C176.24 167.077 174.986 167.952 173.81 168.77C172.629 169.567 171.521 170.318 170.574 170.959C169.627 171.589 168.831 172.115 168.274 172.485C167.999 172.673 167.775 172.813 167.624 172.907C167.473 173.001 167.39 173.053 167.39 173.053L167.312 172.923C167.312 172.923 167.39 172.866 167.53 172.751C167.671 172.642 167.879 172.475 168.134 172.256C168.644 171.818 169.393 171.219 170.298 170.495C170.751 170.135 171.224 169.729 171.739 169.307C172.244 168.874 172.816 168.468 173.373 167.999C174.481 167.071 175.719 166.123 176.906 165.128C177.509 164.633 178.113 164.138 178.706 163.648C179.278 163.148 179.871 162.674 180.449 162.226ZM192.409 139.93C192.836 139.289 193.268 138.669 193.705 138.08C194.615 136.928 195.484 135.902 196.275 135.058C196.676 134.641 197.055 134.271 197.399 133.948C197.732 133.625 198.028 133.354 198.283 133.145C198.533 132.927 198.746 132.781 198.882 132.682C199.022 132.583 199.1 132.531 199.1 132.531L199.189 132.671C199.189 132.671 198.975 133.026 198.621 133.625C198.445 133.922 198.231 134.281 197.961 134.688C197.701 135.084 197.399 135.542 197.076 136.032C196.754 136.527 196.41 137.048 196.025 137.595C195.64 138.142 195.224 138.705 194.787 139.273C194.35 139.841 193.887 140.409 193.382 140.977C192.888 141.54 192.399 142.128 191.915 142.717C190.942 143.884 189.969 145.062 189.054 146.167C188.117 147.256 187.28 148.287 186.525 149.142C185.786 150.002 185.162 150.726 184.725 151.237C184.278 151.732 184.023 152.018 184.023 152.018L183.914 151.914C183.914 151.914 184.148 151.607 184.527 151.059C184.897 150.497 185.454 149.72 186.135 148.777C186.489 148.319 186.827 147.792 187.207 147.245C187.581 146.693 188.008 146.141 188.429 145.552C189.241 144.359 190.188 143.113 191.062 141.837C191.52 141.201 191.967 140.56 192.409 139.93ZM203.595 105.681C203.496 106.014 203.371 106.415 203.231 106.879C203.091 107.332 202.929 107.853 202.758 108.406C202.591 108.968 202.357 109.557 202.138 110.188C201.915 110.818 201.675 111.47 201.41 112.136C201.134 112.803 200.807 113.465 200.494 114.148C200.167 114.825 199.886 115.523 199.553 116.216C198.892 117.602 198.325 119.009 197.701 120.307C197.107 121.615 196.566 122.823 196.062 123.85C195.567 124.882 195.198 125.752 194.891 126.351C194.595 126.95 194.423 127.289 194.423 127.289L194.293 127.221C194.293 127.221 194.428 126.862 194.657 126.231C194.881 125.595 195.203 124.694 195.593 123.605C195.796 123.063 196.025 122.479 196.228 121.849C196.436 121.219 196.696 120.572 196.941 119.885C197.461 118.53 197.94 117.06 198.512 115.607C198.767 114.867 199.022 114.132 199.272 113.408C199.522 112.678 199.797 111.965 200.047 111.282C200.572 109.927 201.212 108.713 201.722 107.692C202.263 106.676 202.758 105.853 203.153 105.321C203.34 105.045 203.512 104.847 203.616 104.711C203.725 104.576 203.782 104.508 203.782 104.508L203.902 104.623C203.902 104.612 203.803 105.008 203.595 105.681Z" fill="#A4E0DA"/>
<path d="M145.425 208.641C145.254 208.36 145.014 208.079 144.728 207.761C144.442 207.448 144.104 207.109 143.714 206.745C143.318 206.39 142.845 206.047 142.335 205.666C140.28 204.171 137.236 202.54 133.261 201.253C132.278 200.898 131.222 200.648 130.124 200.336C129.573 200.195 129.011 200.075 128.433 199.94C127.856 199.799 127.268 199.674 126.664 199.565C124.547 199.132 122.268 198.799 119.839 198.491L113.918 201.956C119.303 202.785 124.126 203.796 128.194 205.166C130.416 205.937 132.403 206.797 134.151 207.719C135.868 208.683 137.392 209.631 138.625 210.642C138.938 210.887 139.245 211.127 139.536 211.361C139.812 211.617 140.077 211.862 140.337 212.096C140.597 212.33 140.847 212.56 141.086 212.779C141.315 213.008 141.523 213.242 141.731 213.461C142.137 213.909 142.538 214.284 142.85 214.68C143.162 215.071 143.448 215.42 143.693 215.728C144.229 216.384 144.988 215.801 145.514 214.555C146.034 213.315 146.325 211.314 145.763 209.413C145.711 209.183 145.592 208.928 145.425 208.641Z" fill="#A4E0DA"/>
<path d="M71.894 198.403C72.7472 198.486 73.5848 198.517 74.4068 198.502C75.2289 198.491 76.0301 198.465 76.8157 198.413C78.4025 198.262 79.9165 198.101 81.4408 197.85C82.7831 197.658 84.1202 197.449 85.4833 197.267C86.9661 197.626 88.4436 197.955 89.9004 198.252L94.7128 195.433C93.6723 195.261 92.6213 195.078 91.5704 194.875C90.2229 194.641 88.8806 194.333 87.5123 194.057C87.1325 193.963 86.7476 193.875 86.3626 193.786C85.244 193.02 84.1983 192.202 83.2046 191.348C82.086 190.436 81.0402 189.425 79.9477 188.492C79.4118 188.008 78.8707 187.518 78.314 187.049C77.7522 186.59 77.1851 186.121 76.6024 185.642C75.3225 184.662 72.5859 183.047 70.2811 181.552C69.1209 180.786 68.044 180.072 67.2584 179.556C66.4832 179.014 65.9941 178.676 65.9941 178.676C65.9941 178.676 66.0566 179.676 66.4312 181.234C66.6289 182 66.9098 182.896 67.3052 183.876C67.5029 184.365 67.7319 184.876 67.992 185.397C68.2573 185.903 68.5591 186.424 68.8972 186.945C69.2458 187.492 69.6516 188.002 70.1094 188.487C70.0834 188.477 70.0574 188.466 70.0314 188.451C68.0076 186.58 66.3479 184.537 64.8392 182.453C62.4251 179.113 60.4013 175.669 57.956 172.251C57.6283 171.792 57.1964 171.23 56.6814 170.63C56.4212 170.333 56.1455 170.016 55.8542 169.687C55.568 169.354 55.2715 169.005 54.9645 168.645C54.6523 168.296 54.335 167.937 54.0124 167.567C53.6951 167.191 53.3725 166.816 53.0499 166.431L52.0718 165.3C51.7597 164.914 51.4423 164.534 51.1354 164.159C50.8284 163.789 50.5267 163.424 50.2301 163.07C49.944 162.71 49.6682 162.356 49.4081 162.023C48.8878 161.345 48.3883 160.762 48.0086 160.225C47.223 159.183 46.7287 158.521 46.7287 158.521C46.7287 158.521 46.3333 159.881 46.12 162.142C45.9223 164.388 45.9639 167.525 46.9056 170.99C47.2594 172.188 47.764 173.397 48.4196 174.544C48.6433 174.913 48.8774 175.283 49.1219 175.653C48.841 175.424 48.5653 175.19 48.2843 174.96C46.7755 172.511 45.6778 169.99 44.7569 167.483C43.3418 163.607 42.3325 159.73 40.9017 155.77C40.6988 155.244 40.4439 154.582 40.1057 153.858C39.9392 153.493 39.7571 153.118 39.5646 152.722C39.3826 152.321 39.19 151.904 38.9923 151.476C38.5865 150.627 38.1495 149.741 37.7437 148.824C37.3223 147.918 36.8905 147.016 36.5107 146.12C35.7095 144.359 35.0487 142.686 34.5441 141.477C34.0706 140.258 33.7741 139.487 33.7741 139.487C33.7741 139.487 33.0301 140.691 32.2133 142.816C31.8179 143.874 31.4329 145.151 31.1155 146.631C30.8086 148.105 30.6213 149.752 30.6005 151.549C30.6161 152.8 30.7721 154.103 31.0999 155.379C31.2404 155.9 31.4017 156.426 31.5785 156.953C31.3704 156.661 31.1623 156.374 30.9594 156.077C30.101 153.196 29.6952 150.361 29.4767 147.589C29.1489 143.478 29.2374 139.461 28.9096 135.261C28.8524 134.704 28.7743 133.995 28.6495 133.208C28.5298 132.416 28.3477 131.551 28.2072 130.613C27.8795 128.758 27.5309 126.7 27.2448 124.783C27.1199 123.819 26.9638 122.902 26.8649 122.052C26.7661 121.203 26.6725 120.432 26.5944 119.781C26.4696 118.478 26.3863 117.655 26.3863 117.655C26.3863 117.655 26.1262 117.9 25.6943 118.368C25.2677 118.837 24.6382 119.541 23.9931 120.448C23.3428 121.359 22.6092 122.49 21.9068 123.834C21.2513 125.163 20.5749 126.721 20.1067 128.435C19.602 130.259 19.4616 132.249 19.6124 134.256C19.4824 133.906 19.3627 133.552 19.2379 133.198C19.1442 130.077 19.5136 127.143 20.0651 124.319C20.8715 120.26 22.0109 116.415 22.8121 112.277C22.9265 111.72 22.9942 111.022 23.093 110.23C23.1971 109.432 23.2803 108.547 23.3584 107.609C23.452 106.671 23.5509 105.681 23.6497 104.68C23.7433 103.685 23.8838 102.679 23.9827 101.716C24.0711 100.746 24.248 99.8241 24.3521 98.9748C24.4769 98.1255 24.555 97.3543 24.6746 96.7082C24.8984 95.416 25.0388 94.5979 25.0388 94.5979C25.0388 94.5979 23.7798 95.2544 21.9848 96.6613C21.1004 97.3699 20.1327 98.2714 19.1078 99.3812C18.6031 99.9387 18.0725 100.543 17.573 101.205C17.0892 101.867 16.6053 102.58 16.1423 103.346C15.0913 105.082 14.4306 107.114 14.0612 109.234C14.0248 108.833 13.9884 108.432 13.9624 108.031C14.7011 104.868 15.8821 102.039 17.2088 99.3656C17.677 98.4381 18.1297 97.5315 18.6083 96.63C19.1026 95.739 19.5968 94.848 20.1015 93.9466C20.3408 93.4985 20.5801 93.0504 20.8247 92.6023C21.0744 92.1542 21.3241 91.706 21.5791 91.2475C22.0837 90.3409 22.5207 89.4134 22.9994 88.4703C24.0399 86.4382 25.3874 82.1864 26.9222 78.6223C27.2552 77.7157 27.6662 76.8716 27.9991 76.0848C28.3477 75.3032 28.6287 74.5841 28.9096 73.9953C29.4715 72.8126 29.8253 72.0674 29.8253 72.0674C29.8253 72.0674 28.4362 72.3592 26.3291 73.2346C25.2886 73.6775 24.1127 74.2871 22.8329 75.0791C22.2034 75.4804 21.5166 75.918 20.8767 76.4287C20.2316 76.9341 19.5812 77.4968 18.9309 78.1117C18.4731 78.5442 18.0361 79.0183 17.6198 79.5185C17.2296 80.024 16.8602 80.5607 16.5117 81.1234C16.0278 81.905 15.5752 82.7387 15.185 83.5984C15.2578 83.1868 15.3359 82.7751 15.4139 82.3635C15.9446 81.3683 16.5169 80.4252 17.0892 79.5238C17.7031 78.6275 18.3482 77.773 18.9881 76.9445C19.3107 76.5329 19.6333 76.1265 19.961 75.7253L21.0016 74.5581C21.6987 73.7921 22.3803 73.0418 23.0774 72.3019C23.7902 71.5776 24.5082 70.8482 25.2313 70.1187C25.9181 69.3788 26.6569 68.6597 27.38 67.9198C28.1084 67.1851 28.7587 66.3983 29.4975 65.6324C31.0115 63.939 33.5139 60.2447 35.9072 57.1913C36.5003 56.4253 37.1038 55.7063 37.6345 55.0393C37.8998 54.7058 38.1495 54.388 38.3888 54.0858C38.6386 53.794 38.8727 53.523 39.086 53.2729C39.934 52.2777 40.4647 51.6472 40.4647 51.6472C40.4647 51.6472 39.0548 51.5639 36.802 51.8505C35.6627 51.9859 34.3672 52.2569 32.9261 52.6842C32.2081 52.8978 31.4537 53.1531 30.6785 53.4553C29.9085 53.7627 29.1489 54.1379 28.3581 54.5547C27.2499 55.154 26.1574 55.8939 25.2157 56.8005C24.7319 57.2486 24.2636 57.7228 23.811 58.2178C23.5248 58.5252 23.2491 58.8535 22.989 59.1817C23.0098 59.1453 23.0254 59.1036 23.041 59.0619C23.2127 58.7023 23.3896 58.3532 23.5613 57.9989C25.9493 55.3936 28.587 53.4032 31.308 51.6837C33.0145 50.553 34.8302 49.5734 36.5627 48.5261C37.442 48.0103 38.3524 47.5205 39.2265 46.9838C40.1005 46.4471 40.9798 45.9052 41.885 45.3477C43.758 44.0815 47.2177 41.2418 50.3133 38.9126C51.0937 38.3395 51.8481 37.7872 52.5349 37.2817C53.2216 36.7763 53.8824 36.3543 54.413 35.9791C54.9489 35.6039 55.3859 35.3017 55.6929 35.0881C55.9894 34.8692 56.1715 34.7702 56.1715 34.7702C56.1715 34.7702 55.823 34.6452 55.2143 34.4941C54.6003 34.343 53.7107 34.1502 52.5921 33.9991C50.3393 33.6708 47.223 33.5822 43.7216 34.3482C42.5041 34.6348 41.2711 35.0777 40.0901 35.6717C39.034 36.2344 37.9934 36.8961 36.9945 37.6256C37.3067 37.2661 37.6188 36.9066 37.931 36.5627C38.1287 36.4376 38.3316 36.3126 38.5241 36.1875C39.008 35.8957 39.4866 35.6144 39.9653 35.3486C40.4543 35.0881 40.9538 34.8536 41.4428 34.6243C42.4313 34.171 43.3938 33.7438 44.3719 33.3686C45.3656 33.0143 46.3541 32.686 47.3322 32.3734C51.2914 31.175 55.1778 30.31 59.2151 29.0855C60.2764 28.7156 61.858 28.1164 63.5801 27.3608C64.4333 26.9752 65.375 26.6366 66.2907 26.2458C66.7485 26.053 67.2116 25.8602 67.6694 25.6622C68.1325 25.485 68.5955 25.3131 69.0533 25.1411C69.9638 24.8024 70.8118 24.4325 71.6234 24.1563C72.4298 23.875 73.1582 23.6144 73.7773 23.3956C74.3913 23.1715 74.8907 22.9892 75.2497 22.8902C75.6034 22.7807 75.8011 22.7182 75.8011 22.7182C75.8011 22.7182 75.5046 22.515 74.9479 22.1919C74.3913 21.8585 73.5848 21.4416 72.5547 21.0039C71.5194 20.5662 70.2551 20.1025 68.7932 19.7065C67.352 19.3574 65.7132 19.0812 63.9131 18.9666C63.3928 18.9458 62.8674 18.9666 62.3315 19.0031C66.1971 17.6744 70.2811 16.3613 74.1311 14.7461C78.7823 12.7712 83.678 10.0722 87.6372 7.97753C88.6257 7.46168 89.5414 6.96668 90.3686 6.50815C91.201 6.07568 91.9346 5.6953 92.5433 5.38267C93.766 4.73656 94.4839 4.31972 94.4839 4.31972C94.4839 4.31972 93.6827 4.18945 92.2936 4.02271C91.6016 3.94456 90.7536 3.84556 89.7963 3.7674C88.839 3.72571 87.7673 3.68924 86.5967 3.67882C85.4261 3.64755 84.1827 3.7205 82.8768 3.8195C82.2265 3.8664 81.5553 3.92371 80.8789 3.99145C80.2026 4.07482 79.5263 4.18945 78.8395 4.30408C77.466 4.53856 76.0613 4.79909 74.7034 5.21072C73.3403 5.60673 71.9772 6.00794 70.713 6.58631C66.504 8.34748 62.6644 11.0205 59.4128 13.855C59.7093 13.4121 59.9903 12.9588 60.2504 12.4951C61.2077 10.8902 62.0245 9.29059 62.7061 7.78995C63.4136 6.3362 63.9911 4.98667 64.449 3.82471C64.9016 2.65755 65.2398 1.69359 65.4687 1.04227C65.6924 0.380532 65.7964 0.00537109 65.7964 0.00537109C65.7964 0.00537109 65.5623 0.130425 65.1409 0.349268C64.7195 0.562901 64.1212 0.906799 63.4032 1.33928C62.6853 1.76654 61.832 2.27718 60.8955 2.83992C59.9643 3.39745 58.9914 4.08524 57.9717 4.76782C57.467 5.11172 56.9519 5.46604 56.4369 5.82036C55.9374 6.19552 55.4327 6.57589 54.9333 6.95626C53.9448 7.72742 52.9511 8.4569 52.077 9.23328C50.3133 10.7704 48.8046 12.1616 47.9617 13.2454C44.7257 17.1325 42.7175 21.2697 40.8705 25.3287C40.4179 26.3448 39.9704 27.3608 39.5178 28.3873C39.0756 29.4138 38.649 30.4559 38.1807 31.4772C37.7125 32.4984 37.2339 33.5301 36.7448 34.5827C36.6616 34.7702 36.5679 34.9526 36.4795 35.135C36.1413 35.5101 35.7979 35.9009 35.4545 36.2917C36.0789 35.2027 36.646 34.0772 37.1298 32.9153C37.6813 31.6647 38.1599 30.4038 38.4825 29.0959C39.4398 25.4538 39.9236 22.0669 40.215 19.6127C40.3503 18.3778 40.4179 17.3618 40.4491 16.6531C40.4751 15.9445 40.4855 15.5641 40.4855 15.5641C40.4855 15.5641 40.2826 15.7361 39.9496 16.08C39.6167 16.4186 39.1328 16.9032 38.5449 17.5024C37.9622 18.1069 37.2547 18.7999 36.5263 19.6075C35.8083 20.4256 35.0279 21.3114 34.2163 22.2388C31.0531 25.9957 27.8847 30.5497 26.8286 33.0716C26.5684 33.65 26.3239 34.2179 26.095 34.7859C25.8764 35.3642 25.6788 35.9426 25.4915 36.5158C25.1169 37.6673 24.7683 38.7772 24.4925 39.9131C23.9619 42.1901 23.5144 44.3785 23.2075 46.6138C22.6664 50.032 22.2606 53.4241 21.6155 56.9568C21.4074 57.3737 21.1941 57.7853 20.9912 58.2073C21.0848 57.7905 21.1784 57.3737 21.2721 56.9568C21.4126 56.2847 21.5322 55.6073 21.6259 54.9247C21.7872 53.5543 21.938 52.2204 21.912 50.8813C21.9016 49.9382 21.8444 49.0055 21.7976 48.1249C21.7559 47.2443 21.6935 46.395 21.6155 45.5822C21.4542 43.9565 21.2305 42.4819 21.0588 41.2678C20.679 38.8241 20.2576 37.2974 20.2576 37.2974C20.2576 37.2974 19.7269 38.2196 18.8945 39.6734C18.6916 40.0381 18.4679 40.4393 18.2285 40.8614C18.0048 41.2991 17.7707 41.7628 17.521 42.2474C17.0371 43.2218 16.4908 44.2743 15.9758 45.3894C13.8947 49.8444 12.1258 55.1227 11.7252 57.8166C11.5015 59.0567 11.4443 60.3072 11.361 61.5056C11.2882 62.7093 11.257 63.8764 11.309 65.0488C11.3454 66.216 11.4078 67.3571 11.4859 68.4826C11.5899 69.6185 11.7252 70.7387 11.8501 71.8486L12.0374 73.5056C12.1154 74.0579 12.1934 74.6154 12.2715 75.1729C12.4276 76.2828 12.5577 77.3874 12.6773 78.5077C12.8386 79.6071 12.953 80.7066 13.0519 81.8268C12.9634 82.2749 12.8802 82.723 12.8022 83.1711C12.7501 82.202 12.6877 81.2432 12.5576 80.2897C12.4692 79.6123 12.3495 78.935 12.2039 78.268C12.0842 77.6063 11.9333 76.9549 11.746 76.314C11.4859 75.4074 11.1945 74.532 10.898 73.6879C10.5962 72.8438 10.3361 72.0518 10.0396 71.2859C9.46727 69.7696 8.85334 68.4044 8.33828 67.2737C7.33417 65.0228 6.52256 63.668 6.52256 63.668C6.52256 63.668 6.25201 64.6945 5.82539 66.3202C5.61728 67.133 5.42998 68.1126 5.20627 69.1808C4.99296 70.249 4.72764 71.4057 4.56635 72.625C3.70271 77.4656 3.48941 83.0409 3.79116 85.7347C3.93163 86.9905 4.18656 88.2098 4.43629 89.3821C4.56115 89.9709 4.69643 90.5493 4.8369 91.1173C4.98778 91.6852 5.16465 92.2532 5.33634 92.8055C5.68491 93.9153 6.04911 94.9991 6.4185 96.0621C6.8191 97.125 7.25614 98.1724 7.66715 99.204C8.88457 102.195 10.1696 105.113 11.3506 108.224C11.3767 108.614 11.3974 109.01 11.4287 109.401C10.7107 107.333 9.84185 105.326 8.73369 103.529C8.23944 102.726 7.73476 101.96 7.2249 101.226C6.73065 100.496 6.25201 99.7981 5.76296 99.1467C4.80567 97.8389 3.8484 96.6926 3.05239 95.7442C1.48119 93.8476 0.341797 92.7638 0.341797 92.7638C0.341797 92.7638 0.357409 93.8267 0.378219 95.5045C0.388625 96.3434 0.477074 97.3335 0.544708 98.4172C0.633153 99.501 0.674773 100.684 0.836056 101.898C0.986933 103.112 1.117 104.368 1.32511 105.603C1.53842 106.838 1.74132 108.052 1.98065 109.193C2.24078 110.334 2.50091 111.397 2.75584 112.34C3.01597 113.278 3.31252 114.085 3.56224 114.716C5.48723 119.4 8.11458 123.147 10.82 126.695C12.7137 129.154 14.6491 131.53 16.5429 134.089C16.6625 134.438 16.777 134.792 16.9019 135.146C15.7313 133.49 14.441 131.926 13.0155 130.587C11.616 129.305 10.2893 128.149 8.97302 127.148C7.70878 126.137 6.51736 125.272 5.48203 124.569C4.44149 123.871 3.61948 123.319 3.01597 122.954C2.41767 122.589 2.07429 122.407 2.07429 122.407C2.07429 122.407 2.14713 122.662 2.27199 123.121C2.40726 123.579 2.57373 124.241 2.83386 125.038C3.09399 125.835 3.40615 126.778 3.74432 127.815C4.0929 128.847 4.52994 129.952 4.96176 131.098C5.86182 133.38 6.92835 135.772 8.0053 137.846C8.52037 138.893 9.08748 139.841 9.59214 140.675C10.0968 141.509 10.5598 142.228 10.9917 142.759C14.0976 146.766 17.6146 149.679 21.1941 152.367C23.5925 154.165 26.0065 155.879 28.4257 157.76C28.6338 158.068 28.8315 158.375 29.0449 158.677C27.5465 157.479 25.9753 156.39 24.3365 155.535C22.6768 154.655 21.0328 153.925 19.5344 153.295C18.0465 152.659 16.6469 152.154 15.4763 151.747C13.1508 150.924 11.6108 150.575 11.6108 150.575C11.6108 150.575 12.1674 151.482 13.0519 152.909C13.9728 154.311 15.2318 156.228 16.725 158.177C17.4481 159.167 18.2494 160.152 19.0506 161.116C19.8362 162.09 20.6686 163.007 21.4646 163.867C21.86 164.294 22.245 164.711 22.6248 165.097C23.015 165.472 23.3896 165.832 23.7433 166.17C24.4613 166.832 25.0908 167.405 25.6423 167.806C29.7004 170.839 33.8885 172.694 38.0559 174.319C40.7456 175.367 43.425 176.331 46.1512 177.43C46.4373 177.67 46.7235 177.915 47.0097 178.149C45.3448 177.456 43.6383 176.888 41.9319 176.529C38.2536 175.747 34.8614 175.414 32.3798 175.263C29.9137 175.096 28.3321 175.179 28.3321 175.179C28.3321 175.179 29.1177 175.898 30.3559 177.039C30.9646 177.613 31.7451 178.238 32.5723 178.946C32.9937 179.296 33.4255 179.666 33.8834 180.03C34.3464 180.39 34.825 180.76 35.3141 181.135C35.8031 181.505 36.3026 181.88 36.802 182.26C37.3171 182.62 37.8321 182.979 38.3472 183.339C38.8623 183.693 39.3721 184.048 39.8872 184.386C40.4075 184.709 40.9173 185.027 41.4168 185.335C41.9162 185.637 42.4053 185.923 42.8683 186.205C43.3418 186.471 43.8048 186.71 44.2366 186.934C45.1107 187.377 45.8755 187.752 46.5102 187.997C51.2446 189.821 55.7917 190.451 60.2452 190.879C63.013 191.139 65.76 191.327 68.5799 191.608C68.6319 191.629 68.6787 191.65 68.7308 191.676C68.044 191.655 67.3573 191.66 66.6913 191.723C66.041 191.785 65.4115 191.874 64.8028 191.968C64.2044 192.051 63.627 192.15 63.0807 192.259C61.9881 192.473 60.9996 192.728 60.1776 192.958C58.5491 193.395 57.5502 193.807 57.5502 193.807C57.5502 193.807 58.2006 194.104 59.2307 194.568C60.2764 195 61.6967 195.589 63.2575 196.157C66.3947 197.293 70.047 198.267 71.894 198.403ZM10.7783 100.684C10.7783 100.684 10.7107 100.309 10.5962 99.6574C10.4766 98.9956 10.3049 98.0577 10.1072 96.9375C9.89389 95.812 9.71177 94.5041 9.46725 93.0868C9.19671 91.6696 9.01983 90.1689 8.7649 88.6579C8.64524 87.9023 8.48917 87.1416 8.37991 86.4069C8.26545 85.667 8.14579 84.9427 8.05214 84.2289C7.9637 83.515 7.88566 82.8168 7.82843 82.1499C7.79201 81.4829 7.75039 80.8629 7.73479 80.2689C7.70877 79.6853 7.68796 79.1382 7.66715 78.664C7.65154 78.1794 7.63592 77.7574 7.62552 77.4083C7.61511 76.7101 7.63073 76.2984 7.63073 76.2984L7.77638 76.2203C7.77638 76.2203 7.81281 76.3036 7.88044 76.4599C7.94808 76.6215 8.05214 76.8559 8.15099 77.1686C8.37991 77.7886 8.66084 78.7161 8.92098 79.8416C9.18111 80.9723 9.37362 82.2958 9.58693 83.7547C9.67017 84.4842 9.73259 85.2397 9.76901 86.0109C9.78982 86.3965 9.81064 86.7821 9.83665 87.1676C9.87307 87.5532 9.90429 87.944 9.94071 88.3348C10.0135 89.1112 10.076 89.8876 10.128 90.6483C10.154 91.0287 10.18 91.4038 10.206 91.779C10.2425 92.1489 10.2789 92.5189 10.3205 92.8836C10.3829 93.6079 10.461 94.3009 10.4974 94.9679C10.5442 95.6296 10.5598 96.2549 10.6327 96.828C10.7419 97.9848 10.8303 98.9383 10.8668 99.6105C10.9084 100.277 10.9344 100.663 10.9344 100.663L10.7783 100.684ZM70.6193 184.683C70.6193 184.683 70.8326 184.84 71.1864 185.09C71.3581 185.225 71.5714 185.376 71.8159 185.543C72.05 185.72 72.3362 185.903 72.6171 186.127C72.9137 186.335 73.2207 186.58 73.5536 186.83C73.8814 187.085 74.2248 187.351 74.5785 187.627C74.9271 187.909 75.2705 188.221 75.6295 188.539C75.9833 188.852 76.3578 189.18 76.748 189.467C77.5336 190.05 78.3505 190.613 79.1257 191.139C79.9165 191.634 80.6657 192.098 81.3212 192.489C81.9715 192.88 82.5438 193.161 82.9392 193.375C83.3346 193.588 83.5635 193.708 83.5635 193.708L83.4959 193.838C83.4959 193.838 83.2514 193.755 82.8196 193.609C82.3877 193.463 81.7738 193.255 81.0506 192.947C80.6917 192.796 80.3015 192.629 79.8905 192.452C79.4795 192.275 79.058 192.077 78.621 191.863C77.7522 191.421 76.8521 190.92 75.9676 190.394C75.5306 190.118 75.0936 189.847 74.6618 189.576C74.2299 189.31 73.819 189.029 73.4444 188.742C72.716 188.127 72.1229 187.476 71.6651 186.898C71.2072 186.319 70.8951 185.793 70.7234 185.392C70.5465 185.001 70.4893 184.767 70.4893 184.767L70.6193 184.683ZM50.2041 168.593C50.2041 168.593 50.3966 168.89 50.7244 169.401C50.8856 169.656 51.0885 169.963 51.3174 170.318C51.5359 170.672 51.8273 171.047 52.103 171.475C52.4048 171.897 52.7066 172.36 53.0447 172.85C53.3829 173.335 53.7419 173.845 54.1113 174.366C54.4702 174.908 54.8345 175.466 55.2143 176.034C55.5993 176.591 56.0155 177.154 56.4421 177.712C57.2797 178.853 58.2474 179.874 59.1423 180.885C60.0735 181.849 60.9684 182.74 61.754 183.495C62.5604 184.22 63.2523 184.819 63.7414 185.241C64.2252 185.668 64.5166 185.892 64.5166 185.892L64.4178 186.007C64.4178 186.007 64.1004 185.814 63.5645 185.439C63.0234 185.079 62.2742 184.532 61.3742 183.876C60.9424 183.527 60.4741 183.146 59.9799 182.745C59.4856 182.339 58.981 181.917 58.4763 181.437C57.4722 180.484 56.4109 179.483 55.4432 178.384C54.9489 177.842 54.4599 177.316 54.002 176.758C53.539 176.211 53.1124 175.653 52.717 175.106C51.9418 174.012 51.4007 172.871 50.9689 171.928C50.5527 170.974 50.3133 170.12 50.1937 169.536C50.126 169.244 50.1 169.01 50.0792 168.854C50.0636 168.697 50.0532 168.614 50.0532 168.614L50.2041 168.593ZM34.1695 151.06C34.1799 150.763 34.2215 150.528 34.2423 150.372C34.2684 150.215 34.2787 150.132 34.2787 150.132L34.4348 150.143C34.4348 150.143 34.5389 150.481 34.721 151.06C34.8094 151.351 34.9187 151.7 35.0435 152.107C35.1788 152.503 35.3297 152.951 35.491 153.436C35.6678 153.92 35.8343 154.452 36.0268 155.014C36.2245 155.572 36.4431 156.15 36.646 156.765C36.8593 157.375 37.031 158.026 37.2599 158.672C37.4784 159.318 37.7281 159.97 37.983 160.626C38.4877 161.944 39.1328 163.2 39.7207 164.419C40.3606 165.592 40.9694 166.712 41.5261 167.645C42.1036 168.562 42.603 169.333 42.9568 169.875C43.1285 170.146 43.2742 170.354 43.3782 170.495C43.4771 170.636 43.5291 170.709 43.5291 170.709L43.4042 170.792C43.4042 170.792 43.3418 170.724 43.2273 170.594C43.1076 170.464 42.9412 170.271 42.7383 170.021C42.3168 169.526 41.7446 168.791 41.063 167.916C40.7352 167.468 40.3919 166.967 40.0225 166.452C39.6583 165.931 39.2941 165.373 38.9299 164.784C38.2275 163.591 37.468 162.34 36.8437 161.017C36.5159 160.36 36.1933 159.714 35.8968 159.063C35.6002 158.406 35.3401 157.755 35.106 157.119C34.6533 155.858 34.44 154.608 34.2839 153.581C34.1279 152.539 34.1279 151.654 34.1695 151.06ZM23.1138 131.369C23.1919 130.848 23.2751 130.379 23.3636 129.972C23.4676 129.561 23.5717 129.206 23.6757 128.925C23.7694 128.639 23.8682 128.425 23.9307 128.279C23.9983 128.133 24.0347 128.06 24.0347 128.06L24.1804 128.112C24.1804 128.112 24.1908 128.472 24.2012 129.076C24.2064 129.378 24.2116 129.748 24.2428 130.165C24.2636 130.582 24.2896 131.061 24.3157 131.567C24.3573 132.083 24.3625 132.645 24.4093 133.234C24.4613 133.823 24.5029 134.443 24.5342 135.089C24.5706 135.735 24.5654 136.407 24.6174 137.085C24.6538 137.767 24.7162 138.46 24.7839 139.164C24.94 140.56 25.1897 141.962 25.4446 143.285C25.7516 144.588 26.0169 145.833 26.3187 146.881C26.6256 147.923 26.8962 148.798 27.0939 149.418C27.302 150.028 27.4216 150.372 27.4216 150.372L27.2812 150.419C27.2812 150.419 27.1147 150.085 26.8441 149.496C26.5736 148.902 26.2198 148.043 25.8036 147.011C25.5903 146.5 25.4082 145.917 25.1949 145.323C24.9816 144.724 24.7943 144.083 24.5862 143.426C24.2376 142.082 23.837 140.68 23.5873 139.232C23.4468 138.513 23.3219 137.799 23.1971 137.09C23.0774 136.381 23.015 135.678 22.9578 135.006C22.8693 133.656 22.9734 132.406 23.1138 131.369ZM16.6261 114.674C16.6885 113.945 16.7666 113.215 16.8394 112.507C16.9071 111.793 17.0007 111.1 17.1516 110.433C17.4637 109.115 17.8175 107.937 18.265 106.973C18.702 106.009 19.113 105.248 19.4512 104.759C19.6124 104.508 19.7581 104.326 19.8622 104.201C19.9662 104.081 20.0235 104.013 20.0235 104.013L20.1483 104.102C20.1483 104.102 20.0599 104.451 19.9246 105.04C19.857 105.337 19.7737 105.691 19.6801 106.103C19.5864 106.509 19.4772 106.978 19.3575 107.478C19.2535 107.989 19.1442 108.531 19.0246 109.109C18.9101 109.688 18.78 110.303 18.6344 110.933C18.4939 111.563 18.3482 112.215 18.2025 112.882C18.0569 113.549 17.906 114.242 17.8071 114.935C17.6198 116.321 17.4117 117.748 17.3597 119.082C17.2869 120.421 17.2192 121.693 17.24 122.782C17.2556 123.866 17.2556 124.793 17.3077 125.434C17.3493 126.075 17.3701 126.445 17.3701 126.445L17.2192 126.45C17.2192 126.45 17.1568 126.085 17.0423 125.444C16.9123 124.809 16.8342 123.876 16.7042 122.771C16.6521 122.219 16.5845 121.62 16.5533 120.984C16.5117 120.349 16.5117 119.676 16.4857 118.989C16.4596 117.603 16.5481 116.123 16.6261 114.674ZM15.4139 92.2479C15.518 91.9093 15.6272 91.5654 15.7365 91.2163C15.955 90.5285 16.1891 89.8302 16.4284 89.1425C16.5481 88.7986 16.6677 88.4547 16.7822 88.1108C16.9175 87.7721 17.0527 87.4386 17.188 87.1051C17.4533 86.4382 17.7447 85.7973 18.036 85.1928C18.6239 83.9892 19.3783 82.9731 20.0235 82.1551C20.6894 81.3422 21.2721 80.717 21.7403 80.3366C21.9693 80.1386 22.167 80.0083 22.297 79.9145C22.4271 79.826 22.4999 79.7791 22.4999 79.7791L22.5988 79.8989C22.5988 79.8989 22.4219 80.2115 22.1201 80.7378C21.9796 81.0036 21.8132 81.3266 21.6155 81.6966C21.4178 82.0665 21.1941 82.4886 20.9547 82.9367C20.7102 83.3952 20.4501 83.8902 20.1743 84.4113C19.9246 84.9427 19.6489 85.5003 19.3523 86.0734C19.0557 86.6466 18.7228 87.2302 18.395 87.8346C18.0465 88.4338 17.7915 89.0695 17.495 89.7104C16.9331 90.9974 16.3608 92.3157 15.9654 93.5923C15.5596 94.8689 15.1381 96.0777 14.8676 97.1302C14.6023 98.1828 14.3994 99.079 14.2537 99.7095C14.108 100.34 14.0248 100.699 14.0248 100.699L13.8791 100.668C13.8791 100.668 13.9207 100.298 13.9936 99.6522C14.056 99.006 14.1913 98.0838 14.3526 96.9791C14.4306 96.432 14.5763 95.838 14.6959 95.2128C14.8208 94.5875 14.9925 93.9414 15.1486 93.2692C15.2422 92.9305 15.3255 92.5918 15.4139 92.2479ZM24.2688 62.7457C24.7006 62.1726 25.1481 61.6307 25.5955 61.1253C26.0377 60.625 26.5164 60.1874 26.9898 59.7914C27.4581 59.3954 27.9055 59.041 28.3321 58.7336C29.1853 58.124 29.9137 57.6811 30.4808 57.4466C30.7513 57.3163 30.9803 57.2434 31.1311 57.1861C31.282 57.134 31.36 57.1079 31.36 57.1079L31.4225 57.2486C31.4225 57.2486 31.1675 57.4987 30.7357 57.926C30.512 58.1344 30.2675 58.4053 29.9814 58.7128C29.6952 59.015 29.3674 59.3641 29.0188 59.734C28.6703 60.1196 28.2801 60.5156 27.8743 60.9481C27.4632 61.3806 27.0731 61.8495 26.6256 62.3237C26.1886 62.7979 25.7152 63.2668 25.2365 63.7618C24.7423 64.2464 24.3052 64.7831 23.8578 65.325C22.9838 66.414 22.0629 67.529 21.3449 68.6493C20.6166 69.7696 19.883 70.8221 19.3471 71.76C18.8113 72.7031 18.3742 73.5108 18.0673 74.0787C17.7603 74.6467 17.5834 74.9697 17.5834 74.9697L17.4533 74.902C17.4533 74.902 17.5938 74.5581 17.8383 73.9537C18.0725 73.344 18.4471 72.4999 18.8945 71.4786C19.113 70.968 19.4148 70.4417 19.6957 69.8686C19.9818 69.3006 20.32 68.7223 20.653 68.1178C20.9807 67.5134 21.3605 66.909 21.7611 66.3046C22.1565 65.7001 22.5624 65.0905 22.9786 64.4913C23.3792 63.8921 23.8318 63.3137 24.2688 62.7457ZM37.6137 41.1688C38.1807 40.7259 38.7478 40.3195 39.3097 39.9547C40.4803 39.2722 41.6093 38.7511 42.5822 38.3759C43.5551 38.006 44.4239 37.8184 45.0118 37.7246C45.3084 37.6725 45.5425 37.6569 45.6986 37.6465C45.8547 37.636 45.9379 37.6308 45.9379 37.6308L45.9639 37.7819C45.9639 37.7819 45.6518 37.9591 45.1315 38.2613C44.8662 38.4124 44.5488 38.5948 44.1794 38.8032C43.81 39.0012 43.425 39.2774 42.9828 39.5327C42.551 39.8141 42.0723 40.0954 41.5677 40.4081C41.0682 40.7259 40.5167 41.0333 39.9809 41.3824C39.4398 41.7263 38.8623 42.0598 38.2744 42.4141C37.6917 42.7685 37.0778 43.1332 36.5159 43.5396C35.3869 44.3577 34.2371 45.2122 33.2018 46.0719C32.1977 46.9577 31.2508 47.7966 30.4444 48.5418C29.6692 49.3025 29.0449 49.9694 28.5974 50.4384C28.15 50.9073 27.9003 51.1731 27.9003 51.1731L27.791 51.0689C27.791 51.0689 28.0147 50.7719 28.4101 50.256C28.8003 49.735 29.3674 49.0003 30.0906 48.151C30.4652 47.7393 30.871 47.2912 31.2976 46.8171C31.7242 46.3429 32.1977 45.8739 32.6711 45.3789C33.6804 44.4306 34.773 43.4458 35.8812 42.5079C36.4691 42.0494 37.0466 41.6065 37.6137 41.1688ZM64.2617 22.5671C64.5582 22.5932 64.7871 22.6401 64.9432 22.6661C65.0993 22.6974 65.1773 22.713 65.1773 22.713L65.1617 22.8693C65.1617 22.8693 64.8183 22.9631 64.2356 23.1194C63.9443 23.1976 63.5905 23.2914 63.1847 23.4008C62.7789 23.5102 62.3159 23.6301 61.8216 23.7603C61.3326 23.9219 60.8019 24.073 60.2348 24.2449C59.6729 24.4169 59.0694 24.594 58.4451 24.7608C57.8104 24.9171 57.186 25.1151 56.5253 25.2974C55.8698 25.4798 55.2039 25.6987 54.5327 25.9175C53.1956 26.3708 51.9105 26.9492 50.6671 27.4807C49.4341 28.0278 48.3363 28.6322 47.3634 29.1324C46.3905 29.6326 45.6154 30.112 45.0691 30.4559C44.5228 30.7946 44.2054 30.9874 44.2054 30.9874L44.1274 30.8571C44.1274 30.8571 44.4187 30.6278 44.9338 30.2266C45.1887 30.0234 45.5009 29.7837 45.8599 29.5128C46.224 29.247 46.6559 28.9709 47.1189 28.6582C47.5872 28.356 48.0918 28.0278 48.6225 27.6787C48.8878 27.5015 49.1636 27.3348 49.4497 27.1628C49.741 27.0013 50.0376 26.8398 50.3445 26.673C50.9533 26.3552 51.5828 26.0217 52.2227 25.6882C52.5453 25.5267 52.8678 25.3652 53.1904 25.1984L54.1945 24.7608C54.8657 24.4637 55.5368 24.1876 56.1975 23.9114C56.8479 23.6196 57.519 23.3956 58.1694 23.208C59.4752 22.8589 60.6822 22.6244 61.7332 22.5411C62.7997 22.4837 63.6633 22.4942 64.2617 22.5671ZM67.0867 12.0782C67.8047 11.7291 68.5018 11.4113 69.1626 11.1195C69.8337 10.8486 70.4789 10.6141 71.0824 10.4004C72.2946 9.97838 73.3403 9.62407 74.2352 9.43128C76.0093 9.00401 77.0238 8.86854 77.0238 8.86854C77.0238 8.86854 76.1601 9.4417 74.5733 10.2962C73.7721 10.7027 72.8253 11.2654 71.7015 11.8386C71.1396 12.1303 70.5361 12.4221 69.8961 12.7348C69.2666 13.0682 68.6007 13.4069 67.8931 13.7508C65.0473 15.0847 61.447 16.9032 58.185 18.6852C54.9489 20.5037 52.077 22.3118 50.6255 23.3747C52.0042 22.2232 54.6055 20.0348 57.6439 17.8307C60.7031 15.6475 64.1836 13.4382 67.0867 12.0782ZM42.5874 27.7725C42.9776 27.2253 43.5291 26.4438 44.2262 25.5475C44.9182 24.6461 45.6778 23.5311 46.5622 22.416C47.4467 21.3009 48.3467 20.0504 49.2832 18.852C49.7515 18.2528 50.2197 17.6483 50.6567 17.0387C51.1094 16.4395 51.5256 15.8142 51.9938 15.2775C52.4568 14.7304 52.9147 14.2042 53.3621 13.7144C53.8095 13.2194 54.2257 12.7452 54.6367 12.3179C55.0269 11.8855 55.4328 11.5207 55.7605 11.1768C56.1039 10.8381 56.4056 10.5411 56.6502 10.2962C57.1496 9.80644 57.4462 9.51465 57.4462 9.51465L57.6023 9.56675C57.6023 9.56675 57.5658 9.65533 57.5034 9.81686C57.4358 9.97839 57.3421 10.2181 57.1861 10.5151C56.8999 11.1143 56.4109 11.9376 55.7657 12.8859C55.1154 13.8342 54.3454 14.9701 53.4037 16.0747C52.9147 16.6166 52.41 17.1846 51.895 17.7578C51.3799 18.3257 50.8544 18.9041 50.329 19.4824L49.5433 20.337C49.2884 20.6288 49.0387 20.9206 48.789 21.2124C48.2843 21.7803 47.7848 22.3431 47.301 22.8849C47.0565 23.1507 46.8172 23.4164 46.583 23.6717C46.3593 23.9375 46.1356 24.198 45.9119 24.4481C45.4697 24.9431 45.0535 25.4121 44.6685 25.8393C44.2783 26.2666 43.9193 26.6574 43.6071 27.0013C43.3002 27.3556 43.0348 27.663 42.8059 27.9131C42.3585 28.4134 42.1035 28.6999 42.1035 28.6999L41.9787 28.6166C41.9787 28.6218 42.2024 28.3144 42.5874 27.7725ZM25.5018 48.5105C25.736 47.88 26.0741 46.989 26.4747 45.9208C26.8962 44.8527 27.3852 43.6126 27.9055 42.2839C28.4413 40.9604 29.0397 39.5587 29.586 38.1258C29.8565 37.4068 30.1739 36.719 30.434 36.0156C30.7097 35.3173 30.9698 34.6296 31.256 33.9626C31.5265 33.2904 31.8543 32.6808 32.1561 32.0868C32.463 31.498 32.744 30.9353 33.0249 30.4142C33.2902 29.8984 33.5504 29.4086 33.7845 28.9969C34.029 28.5801 34.2423 28.2206 34.414 27.9184C34.7678 27.3191 34.9811 26.9648 34.9811 26.9648L35.1476 26.9752C35.1476 26.9752 35.1372 27.069 35.1164 27.241C35.0956 27.4129 35.0643 27.6735 34.9915 27.9913C34.877 28.6478 34.5909 29.5388 34.2527 30.6539C33.8989 31.7585 33.4255 33.0299 32.8064 34.343C32.4994 35.0099 32.1769 35.6977 31.8179 36.3803C31.4641 37.0629 31.1051 37.7507 30.7461 38.4437C30.0802 39.8557 29.3882 41.2418 28.7327 42.5288C28.4153 43.1853 28.1344 43.821 27.8275 44.415C27.5257 45.0038 27.2448 45.5613 26.9794 46.0772C26.4539 47.1141 26.0638 47.9894 25.7464 48.5834C25.4446 49.1827 25.2678 49.5213 25.2678 49.5213L25.1273 49.4744C25.1325 49.4849 25.2677 49.1305 25.5018 48.5105ZM14.5607 73.0627C14.6231 72.3957 14.7115 71.4422 14.8156 70.3115C14.9092 69.1704 15.0861 67.8573 15.2266 66.4244C15.3411 64.9863 15.5856 63.4961 15.7365 61.9642C15.8145 61.2034 15.8821 60.4323 15.9758 59.6976C16.0642 58.9525 16.1371 58.223 16.2411 57.5091C16.3504 56.8005 16.444 56.0971 16.5897 55.451C16.7354 54.7996 16.8602 54.1848 17.0007 53.6116C17.1308 53.0437 17.2504 52.507 17.3597 52.0432C17.469 51.5691 17.5678 51.1575 17.6666 50.824C17.8539 50.1518 17.9684 49.7558 17.9684 49.7558L18.1297 49.7193C18.1297 49.7193 18.1453 49.8131 18.1661 49.9799C18.1869 50.1518 18.2286 50.4071 18.239 50.7354C18.2806 51.3867 18.2962 52.3507 18.2545 53.5126C18.2285 54.091 18.1817 54.7163 18.1089 55.378C18.0361 56.0345 17.9372 56.7275 17.8435 57.457C17.7291 58.1813 17.5886 58.9316 17.4221 59.6819C17.2556 60.4323 17.0892 61.193 16.9539 61.9642C16.8186 62.7301 16.6729 63.4961 16.5221 64.2464C16.366 64.9915 16.2151 65.7262 16.1006 66.4452C15.9654 67.1591 15.8561 67.8521 15.7156 68.4982C15.5856 69.1495 15.4295 69.754 15.3463 70.3271C15.1382 71.4734 14.9717 72.4165 14.826 73.0679C14.6907 73.7244 14.6127 74.0996 14.6127 74.0996L14.4618 74.0943C14.4566 74.0996 14.493 73.7244 14.5607 73.0627ZM14.2381 127.289C14.2381 127.289 14.0664 126.945 13.7699 126.351C13.4629 125.752 13.0935 124.882 12.5993 123.85C12.0894 122.824 11.5483 121.609 10.9604 120.307C10.3361 119.009 9.769 117.608 9.10826 116.217C8.7805 115.524 8.49435 114.82 8.16658 114.148C7.85442 113.465 7.52668 112.804 7.25094 112.137C6.98561 111.47 6.74627 110.818 6.52256 110.188C6.30405 109.557 6.06993 108.969 5.90344 108.406C5.73175 107.854 5.57048 107.333 5.43001 106.879C5.28954 106.415 5.16987 106.014 5.06582 105.681C4.85771 105.014 4.75885 104.613 4.75885 104.613L4.87853 104.498C4.87853 104.498 4.93573 104.571 5.04499 104.701C5.14904 104.837 5.32074 105.035 5.50803 105.311C5.90344 105.848 6.40289 106.666 6.93876 107.682C7.44862 108.703 8.08857 109.922 8.61404 111.272C8.86376 111.954 9.1343 112.663 9.38923 113.398C9.63896 114.122 9.89387 114.862 10.1488 115.596C10.7159 117.05 11.1945 118.52 11.72 119.874C11.9645 120.557 12.2247 121.208 12.4328 121.839C12.6357 122.469 12.8698 123.053 13.0675 123.595C13.4577 124.684 13.7803 125.59 14.004 126.221C14.2381 126.851 14.3682 127.211 14.3682 127.211L14.2381 127.289ZM24.633 152.018C24.633 152.018 24.3781 151.737 23.9307 151.237C23.4936 150.726 22.8745 150.007 22.1357 149.142C21.3762 148.282 20.5437 147.256 19.6073 146.167C18.6916 145.062 17.7135 143.885 16.7458 142.717C16.2619 142.129 15.7781 141.54 15.2786 140.977C14.7792 140.409 14.3161 139.846 13.8791 139.273C13.4421 138.705 13.0259 138.143 12.6409 137.595C12.2559 137.048 11.9125 136.527 11.5899 136.032C11.2674 135.543 10.9708 135.089 10.7055 134.688C10.4349 134.282 10.2217 133.922 10.0448 133.625C9.68578 133.026 9.47766 132.671 9.47766 132.671L9.5661 132.531C9.5661 132.531 9.64416 132.583 9.78464 132.682C9.92511 132.786 10.1384 132.932 10.3829 133.146C10.6379 133.354 10.9396 133.625 11.2674 133.948C11.6108 134.266 11.9906 134.641 12.3912 135.058C13.1872 135.897 14.056 136.929 14.9613 138.08C15.3983 138.669 15.8301 139.289 16.2567 139.93C16.699 140.56 17.1464 141.201 17.5938 141.837C18.4679 143.113 19.4148 144.359 20.2264 145.552C20.6478 146.146 21.0796 146.698 21.449 147.245C21.8288 147.787 22.167 148.314 22.5207 148.777C23.1971 149.72 23.759 150.497 24.1284 151.06C24.5134 151.612 24.7423 151.914 24.7423 151.914L24.633 152.018ZM41.2763 173.053C41.2763 173.053 41.1931 173.001 41.0422 172.907C40.8913 172.814 40.6676 172.673 40.3919 172.485C39.8352 172.115 39.0392 171.584 38.0923 170.959C37.1454 170.318 36.0373 169.567 34.8562 168.77C33.6752 167.952 32.4214 167.077 31.178 166.212C30.5536 165.774 29.9241 165.342 29.2946 164.93C28.6651 164.513 28.072 164.091 27.4945 163.664C26.9222 163.231 26.3603 162.809 25.8504 162.382C25.3458 161.95 24.8619 161.548 24.4197 161.158C23.9723 160.788 23.5717 160.413 23.2023 160.105C22.8485 159.777 22.5415 159.49 22.2918 159.251C21.782 158.771 21.4854 158.485 21.4854 158.485L21.5322 158.328C21.5322 158.328 21.6207 158.36 21.782 158.417C21.9432 158.479 22.1878 158.563 22.4895 158.703C23.1034 158.959 23.9203 159.433 24.9296 160.006C25.9337 160.595 27.0262 161.366 28.2177 162.226C28.8003 162.674 29.3882 163.148 29.9657 163.659C30.5588 164.148 31.1624 164.643 31.7659 165.138C32.9521 166.134 34.1903 167.082 35.2985 168.01C35.8499 168.478 36.4222 168.885 36.9321 169.317C37.4472 169.739 37.9206 170.146 38.3732 170.505C39.2837 171.23 40.0329 171.824 40.5375 172.267C40.7925 172.485 40.9954 172.652 41.141 172.762C41.2815 172.871 41.3596 172.933 41.3596 172.933L41.2763 173.053ZM62.9974 188.774C62.9974 188.774 62.628 188.68 61.9985 188.466C61.3586 188.263 60.4481 187.976 59.366 187.633C58.2786 187.273 57.0092 186.856 55.6565 186.408C54.3194 185.918 52.8418 185.47 51.4163 184.949C50.6931 184.699 49.97 184.454 49.252 184.23C48.5392 183.996 47.8473 183.751 47.1761 183.495C46.5102 183.235 45.8442 182.985 45.2459 182.703C44.6424 182.422 44.065 182.172 43.5343 181.911C43.0036 181.672 42.5093 181.432 42.0827 181.223C41.6561 180.999 41.2815 180.807 40.9694 180.65C40.3503 180.327 39.9809 180.134 39.9809 180.134V179.968C39.9809 179.968 40.0745 179.973 40.2462 179.983C40.4179 179.999 40.678 180.015 41.0058 180.067C41.6665 180.145 42.577 180.379 43.7059 180.666C44.8349 180.958 46.0992 181.406 47.4727 181.911C48.1542 182.182 48.8514 182.479 49.5433 182.813C50.2405 183.141 50.9689 183.428 51.6816 183.751C53.0968 184.386 54.5431 184.965 55.8646 185.548C56.5201 185.856 57.186 186.085 57.7895 186.361C58.3983 186.627 58.9706 186.882 59.496 187.111C60.5678 187.56 61.4522 187.924 62.0609 188.206C62.6697 188.487 63.0286 188.622 63.0286 188.622L62.9974 188.774ZM66.7641 194.172C67.2064 194.068 67.8567 193.979 68.6579 193.911C69.4539 193.854 70.3904 193.849 71.3893 193.948C71.894 193.995 72.4194 194.062 72.9449 194.156C73.4704 194.245 74.001 194.333 74.5369 194.422C75.6035 194.563 76.6648 194.714 77.6533 194.896C78.1475 194.974 78.6262 195.052 79.084 195.13C79.5367 195.214 79.9633 195.292 80.3587 195.365C81.1443 195.532 81.805 195.615 82.2577 195.719C82.7155 195.808 82.9756 195.86 82.9756 195.86L82.9704 196.011C82.9704 196.011 82.7103 196.001 82.2473 195.985C81.7894 195.959 81.1287 195.949 80.3483 195.902C79.5627 195.87 78.647 195.829 77.6689 195.792C76.6908 195.745 75.6503 195.672 74.5993 195.641C74.0739 195.636 73.5588 195.594 73.0437 195.594C72.5339 195.584 72.0292 195.579 71.535 195.547C71.0407 195.516 70.5673 195.464 70.1199 195.381C69.6672 195.308 69.2406 195.24 68.84 195.157C68.4446 195.094 68.0752 195.005 67.7474 194.943C67.4145 194.875 67.1283 194.807 66.8942 194.745C66.4208 194.615 66.1346 194.536 66.1346 194.536L66.0878 194.38C66.0826 194.375 66.3219 194.276 66.7641 194.172Z" fill="#A4E0DA"/>
<path d="M104.73 192.483L94.5176 198.46L104.73 204.436L114.938 198.46L104.73 192.483Z" fill="#A4E0DA"/>
</svg>
