<?xml version="1.0" encoding="UTF-8"?>
<!DOCTYPE svg PUBLIC "-//W3C//DTD SVG 1.1//EN" "http://www.w3.org/Graphics/SVG/1.1/DTD/svg11.dtd">
<!-- Creator: CorelDRAW 2018 (64-Bit Evaluation Version) -->
<svg xmlns="http://www.w3.org/2000/svg" xml:space="preserve" width="2.23707in" height="1.65989in" version="1.1" style="shape-rendering:geometricPrecision; text-rendering:geometricPrecision; image-rendering:optimizeQuality; fill-rule:evenodd; clip-rule:evenodd"
viewBox="0 0 638.1 473.46"
 xmlns:xlink="http://www.w3.org/1999/xlink">
 <defs>
  <style type="text/css">
   <![CDATA[
    .fil0 {fill:#2B2A29}
    .fil1 {fill:#C22D22}
    .fil3 {fill:url(#id0)}
    .fil2 {fill:url(#id1)}
   ]]>
  </style>
  <linearGradient id="id0" gradientUnits="userSpaceOnUse" x1="264.32" y1="60.02" x2="264.32" y2="243.45">
   <stop offset="0" style="stop-opacity:1; stop-color:#E6A51E"/>
   <stop offset="0.290196" style="stop-opacity:1; stop-color:#E28E1D"/>
   <stop offset="1" style="stop-opacity:1; stop-color:#DD761C"/>
  </linearGradient>
  <linearGradient id="id1" gradientUnits="userSpaceOnUse" x1="314.71" y1="59.1" x2="314.71" y2="305.25">
   <stop offset="0" style="stop-opacity:1; stop-color:#FFF167"/>
   <stop offset="1" style="stop-opacity:1; stop-color:#FBBA00"/>
  </linearGradient>
 </defs>
 <g id="Layer_x0020_1">
  <metadata id="CorelCorpID_0Corel-Layer"/>
  <g id="_640526830320">
   <g>
    <path class="fil0" d="M-0 463.53c0,5.5 4,8.63 8.51,8.63 4.5,0 7.88,-3.13 7.88,-8.63l0 -48.28 41.4 52.54c3.63,3.38 5.75,4.38 10.13,4.38 3.25,-1 6.63,-3.13 6.63,-8.63l0 -70.42c0,-4.13 -4.38,-8.63 -8.88,-8.63 -4.25,0 -7.88,4.5 -7.88,8.63l0 48.53 -41.4 -51.79c-3.38,-3.25 -4.38,-4.38 -8.88,-4.38 -6.51,0 -7.51,4.38 -7.51,8.88l0 69.17zm159.98 -20.01c4.13,5.5 9.76,5.5 14.26,0l20.76 -26.27 0 46.28c0,5.5 3.5,8.63 8.01,8.63 4,0 7.5,-3.13 7.5,-8.63l0 -70.42c0,-8.63 -10.13,-10.63 -14.26,-5.5l-28.52 38.53 -27.52 -37.15c-2.13,-2.38 -4.25,-4.5 -7.88,-4.5 -2,0 -7.51,2.13 -7.51,8.63l0 70.42c0,5.5 3.5,8.63 7.51,8.63 4.5,0 9.01,-3.13 9.01,-8.63l0 -46.28 18.64 26.27zm122.58 28.65c12.26,0 11.38,-16.39 0,-16.39l-38.15 0 0 -18.76 31.52 0c11.13,0 11.13,-16.39 0,-16.39l-31.52 0 0 -18.76 36.02 0c11.26,0 11.51,-16.26 0,-16.26l-44.9 0c-4.38,0 -7.76,3.25 -7.76,7.76l0 71.05c0,4.38 3.38,7.76 7.76,7.76l47.03 0zm59.54 -71.3c35.27,0 33.77,56.04 0,56.04l-20.77 0 0 -56.04 20.77 0zm1.13 71.3c54.79,0 56.04,-86.56 -1.13,-86.56l-28.65 0c-4.13,0 -8.63,3.25 -8.63,7.76l0 71.05c0,5.5 4.5,7.76 8.63,7.76l29.77 0zm144.85 -43.78c0,-29.64 -22.89,-44.78 -44.78,-45.91 -23.14,0 -47.16,15.14 -47.16,45.91 0,30.65 24.02,46.03 47.16,45.03 21.89,0 44.78,-15.39 44.78,-45.03zm-16.39 0c0,19.64 -15.39,29.65 -29.77,29.65 -14.01,0 -29.27,-10.01 -29.27,-29.65 0,-19.76 15.26,-29.64 29.27,-29.64 14.38,0 29.77,9.88 29.77,29.64zm76.43 38.15l31.9 -69.92c4.25,-10.38 -10.26,-16.39 -15.26,-6.88l-11.13 25.14 -14.13 33.02 -14.39 -33.02 -11.13 -25.14c-5.5,-10.38 -20.26,-2.25 -15.39,7.63l33.02 69.17c4.75,9.76 13.63,7.88 16.51,0z"/>
    <path class="fil0" d="M87.52 389.92c-4.3,7.65 8.58,14.32 12.64,7.11l10.73 -19.06c3.81,-6.76 -8.77,-13.99 -12.64,-7.11l-10.73 19.06z"/>
   </g>
   <g>
    <path class="fil1" d="M498.13 0c-52.33,0 -104.65,0.43 -156.98,0.24 -172.13,-0.64 -173.61,179.83 -295.98,243.21 47.93,0 95.87,0 143.8,0 217.03,0 184.83,-193.44 309.16,-243.44z"/>
    <path class="fil2" d="M638.1 61.8c-39.02,0 -141.14,0.24 -212.25,0.28 -44.79,64.76 -68.87,152.16 -176.74,175.46 107.86,-23.3 131.94,-110.7 176.74,-175.46 -24.25,0.01 -44.91,0.01 -58.22,-0.04 -130.79,-0.49 -163.06,103.59 -224.7,181.41l0 0c-19.48,24.6 -41.89,46.58 -71.28,61.8 47.93,0 209.36,0 257.29,0 217.03,0 184.83,-193.44 309.16,-243.45z"/>
    <path class="fil3" d="M142.92 243.45l46.05 0c160.67,0 184.76,-106.01 236.87,-181.37 -24.25,0.01 -44.91,0.01 -58.22,-0.04 -130.79,-0.49 -163.06,103.59 -224.7,181.41z"/>
   </g>
  </g>
 </g>
</svg>
