<?xml version="1.0" encoding="UTF-8"?> <svg xmlns="http://www.w3.org/2000/svg" width="830" height="830" viewBox="0 0 830 830" fill="none"> <circle cx="415" cy="415" r="415" fill="#CD9827"></circle> <path fill-rule="evenodd" clip-rule="evenodd" d="M248.205 416.076C245.938 417.274 244.104 419.596 243.664 421.826C243.497 422.669 245.341 441.113 247.761 462.815C250.181 484.516 252.032 503.084 251.875 504.078C251.228 508.177 246.255 511.741 242.242 510.982C239.303 510.426 236.96 508.65 235.903 506.175C235.191 504.511 233.94 495.03 231.286 471.192C229.284 453.207 227.563 438.402 227.462 438.292C227.196 438.003 221.094 442.201 216.693 445.701C189.877 467.023 173.49 502.755 174.388 537.944L174.554 544.43H278.01H381.467L381.635 537.944C382.522 503.694 367.029 468.913 341.219 447.209C336.671 443.385 328.903 437.918 328.553 438.296C328.454 438.404 326.734 453.207 324.732 471.192C322.082 494.999 320.827 504.514 320.117 506.175C319.06 508.65 316.718 510.426 313.778 510.982C309.766 511.741 304.798 508.18 304.142 504.078C303.983 503.084 305.835 484.516 308.258 462.815C310.68 441.113 312.526 422.669 312.358 421.826C311.906 419.545 310.057 417.252 307.7 416.049C305.692 415.024 304.459 414.981 277.897 415.004C251.549 415.027 250.091 415.08 248.205 416.076ZM165.64 562.703C164.6 563.031 162.525 564.527 161.029 566.026C157.211 569.854 156.157 573.893 157.653 578.96C158.53 581.929 163.005 586.406 165.973 587.283C169.205 588.239 386.815 588.239 390.048 587.283C393.016 586.406 397.491 581.929 398.368 578.96C399.782 574.171 398.836 570.132 395.405 566.314C391.16 561.591 402.168 561.989 277.779 562.052C199.05 562.091 166.99 562.278 165.64 562.703Z" fill="white"></path> <path fill-rule="evenodd" clip-rule="evenodd" d="M482.709 415.831C481.903 416.268 480.761 417.572 480.171 418.727C479.212 420.606 479.1 421.873 479.1 430.754C479.1 442.292 479.592 444.053 483.36 445.975C485.443 447.038 486.358 447.051 559.513 447.051C632.668 447.051 633.583 447.038 635.666 445.975C639.434 444.053 639.927 442.292 639.927 430.754C639.927 421.866 639.815 420.607 638.853 418.722C636.797 414.692 643.185 414.99 559.406 415.014C493.821 415.032 483.987 415.137 482.709 415.831ZM495.129 497.486V531.892L499.162 530.611C508.123 527.765 508.822 527.731 557.64 527.731C585.817 527.731 603.985 527.934 605.752 528.269C609.496 528.979 613.753 530.968 616.701 533.384C618.014 534.459 619.089 535.089 619.089 534.783C619.089 534.477 620.171 532.613 621.493 530.641L623.897 527.055V495.068V463.08H559.513H495.129V497.486ZM571.549 496.748C573.92 497.958 575.81 501.036 575.81 503.687C575.81 506.338 573.92 509.416 571.549 510.626C569.56 511.641 568.426 511.702 551.499 511.702C534.571 511.702 533.437 511.641 531.448 510.626C529.077 509.416 527.187 506.338 527.187 503.687C527.187 501.118 529.078 497.965 531.334 496.774C533.206 495.786 534.468 495.718 551.386 495.696C568.452 495.674 569.556 495.731 571.549 496.748ZM666.108 513.438C653.856 518.18 642.83 526.845 636.513 536.697C635.247 538.672 629.45 549.614 623.631 561.014C612.141 583.523 610.783 585.526 604.815 588.774C599.251 591.802 598.66 591.847 564.723 591.847C534.542 591.847 533.49 591.813 531.448 590.772C529.077 589.562 527.187 586.484 527.187 583.833C527.187 581.182 529.077 578.104 531.448 576.894C533.489 575.853 534.543 575.818 564.051 575.818C597.607 575.818 596.934 575.881 599.468 572.536C600.216 571.549 602.793 566.775 605.195 561.926C608.999 554.25 609.528 552.84 609.289 551.02C608.967 548.563 607.662 546.637 605.174 544.943L603.379 543.722L556.333 543.897C515.349 544.049 508.944 544.18 506.617 544.913C501.865 546.409 497.406 548.42 494.228 550.499C491.037 552.587 460.399 582.504 460.399 583.532C460.399 583.847 472.42 596.123 487.112 610.813L513.824 637.521L520.639 630.733L527.455 623.945L566.459 623.749C608.337 623.538 607.851 623.569 615.269 620.701C624.569 617.104 632.699 610.627 637.942 602.638C639.233 600.67 649.224 581.863 660.145 560.843C678.782 524.97 680 522.456 680 519.861C680 516.376 679.348 514.947 677.038 513.363C674.144 511.381 671.372 511.4 666.108 513.438ZM439.293 592.617C437.139 593.595 408.236 622.703 407.527 624.608C406.743 626.717 406.829 628.529 407.814 630.602C408.281 631.588 421.141 644.677 436.597 659.899C460.869 683.803 464.797 687.463 466.526 687.787C470.695 688.57 471.485 687.972 487.218 672.119C503.118 656.099 503.724 655.276 502.906 650.806C502.571 648.978 499.487 645.703 474.936 621.107C459.76 605.902 446.578 593.099 445.642 592.655C443.56 591.667 441.415 591.654 439.293 592.617Z" fill="white"></path> <path fill-rule="evenodd" clip-rule="evenodd" d="M323.083 179.906C320.84 181.084 318.624 183.667 318.021 185.805C317.751 186.765 313.32 225.263 308.176 271.357C301.31 332.864 298.871 356.15 299.005 358.868C299.339 365.587 303.311 371.46 309.583 374.51L312.646 376H407.01H501.373L504.434 374.503C510.706 371.434 514.661 365.579 514.995 358.868C515.129 356.15 512.69 332.864 505.824 271.357C500.68 225.263 496.249 186.765 495.979 185.805C495.362 183.618 493.128 181.054 490.816 179.882C489.081 179.003 487.314 178.984 406.902 179.004C327.083 179.024 324.713 179.049 323.083 179.906ZM373.761 199.405C378.936 201.855 382.031 206.775 382.031 212.553C382.031 215.889 381.472 217.463 378.347 222.928L377.18 224.969L377.187 237.976C377.197 252.91 377.531 255.301 380.451 261.353C384.154 269.026 392.046 275.085 400.71 276.906C413.953 279.689 427.662 273.206 433.495 261.402C436.465 255.391 436.803 253.003 436.813 237.976L436.82 224.969L435.653 222.928C432.525 217.458 431.969 215.89 431.961 212.517C431.943 204.563 438.428 197.925 446.257 197.883C451.671 197.854 455.816 199.806 458.642 203.717C460.72 206.592 461.516 209.118 461.516 212.836C461.516 215.75 461.324 216.376 459.186 220.424L456.856 224.836L456.852 236.984C456.847 255.173 455.977 260.455 451.501 269.505C448.561 275.447 445.584 279.51 441.066 283.745C421.782 301.823 392.218 301.823 372.934 283.745C368.416 279.51 365.439 275.447 362.5 269.505C358.014 260.437 357.153 255.185 357.148 236.834L357.144 224.537L355.56 221.922C352.963 217.639 352.357 215.586 352.559 211.771C352.938 204.584 357.898 199.099 365.005 198.006C368.207 197.513 370.558 197.889 373.761 199.405Z" fill="white"></path> </svg> 