<?xml version="1.0" encoding="UTF-8"?> <svg xmlns="http://www.w3.org/2000/svg" width="671" height="671" viewBox="0 0 671 671" fill="none"> <circle cx="335.5" cy="335.5" r="335.5" fill="#CD9827"></circle> <path fill-rule="evenodd" clip-rule="evenodd" d="M360.571 126.787C349.45 128.631 341.305 131.242 331.028 136.26C280.809 160.775 259.137 218.545 280.713 270.381C290.013 292.724 309.529 312.911 331.863 323.291C346.48 330.084 360.004 333.07 376.145 333.07C397.432 333.07 416.043 327.409 433.884 315.509C464.014 295.409 481.411 260.72 479.556 224.441C478.192 197.782 468.175 175.319 449.177 156.318C434.237 141.376 417.437 132.21 396.638 127.653C388.652 125.903 368.779 125.426 360.571 126.787ZM382.044 155.128C385.545 157.263 387.485 160.407 388.008 164.794C388.431 168.328 388.548 168.452 392.859 169.968C404.688 174.123 413.481 186.249 413.739 198.76C413.83 203.125 413.511 204.69 412.162 206.497C407.977 212.108 401.497 213.976 396.255 211.085C392.282 208.895 390.377 206.01 389.582 200.977C389.122 198.062 388.216 195.969 386.807 194.56C384.829 192.58 384.246 192.467 376.059 192.467H367.404L365.012 195.145C362.195 198.299 361.917 201.6 364.224 204.534C365.106 205.655 373.867 212.504 383.693 219.753C393.518 227.003 403.1 234.529 404.986 236.477C421.296 253.319 414.36 281.471 391.937 289.436C388.325 290.719 388.031 291.031 388.031 293.582C388.031 300.199 382.877 305.333 376.235 305.333C369.419 305.333 364.867 301.197 363.792 294.03C363.316 290.853 362.996 290.494 359.465 289.163C348.704 285.107 341.248 276.25 338.858 264.686C337.661 258.891 338.134 255.212 340.502 251.885C345.485 244.887 356.424 245.442 360.985 252.923C361.881 254.393 362.615 256.592 362.617 257.811C362.626 264.382 366.192 266.663 376.452 266.663C383.122 266.663 384.036 266.47 386.269 264.591C389.095 262.213 390.1 258.88 388.924 255.786C388.385 254.369 381.193 248.495 367.681 238.436C356.446 230.072 346.338 222.026 345.218 220.556C331.68 202.771 338.607 177.718 359.228 169.89C362.735 168.558 363.011 168.227 363.903 164.265C364.424 161.949 365.548 159.271 366.4 158.312C370.684 153.49 377.187 152.166 382.044 155.128ZM298.956 349.862C280.618 353.189 261.864 363.588 249.229 377.435C244.005 383.158 237.376 393.355 237.873 394.901C238.015 395.345 249.266 415.003 262.873 438.585L287.613 481.462L338.847 481.457C394.415 481.452 399.308 481.151 413.429 476.868C429.787 471.905 437.558 467.101 485.63 432.235C545.132 389.079 541.502 392.241 541.965 383.171C542.312 376.365 540.089 371.534 534.97 367.978C530.713 365.019 523.659 364.181 519.088 366.091C517.486 366.761 498.684 379.956 477.309 395.413C455.934 410.87 436.356 424.577 433.804 425.873C425.3 430.188 421.095 430.602 385.626 430.618C354.647 430.631 353.156 430.561 349.813 428.943C346.026 427.11 342.947 422.22 342.947 418.042C342.947 414.242 345.945 409.492 349.483 407.687C352.573 406.11 354.26 406.037 387.018 406.037H421.318L425.589 403.907C432.462 400.482 435.907 392.862 433.919 385.48C432.679 380.873 427.338 375.403 422.867 374.162C420.8 373.588 410.402 373.25 394.699 373.248L369.807 373.243L364.98 368.774C348.082 353.126 322.052 345.67 298.956 349.862ZM192.014 388.617C189.478 389.856 174.976 398.064 159.788 406.856C129.779 424.23 129 424.856 129 431.603C129 434.907 131.812 440.125 158.775 486.846C175.152 515.223 189.02 539.179 189.594 540.081C191.689 543.378 194.82 545 199.086 545C202.917 545 204.974 543.966 230.645 529.128C245.749 520.399 259.824 512.173 261.923 510.85C267.929 507.064 269.938 500.856 267.001 495.154C264.755 490.793 207.556 391.778 206.565 390.535C205.492 389.19 199.651 386.404 197.856 386.381C197.18 386.373 194.551 387.379 192.014 388.617Z" fill="white"></path> </svg> 