<?xml version="1.0" encoding="UTF-8"?> <svg xmlns="http://www.w3.org/2000/svg" width="671" height="671" viewBox="0 0 671 671" fill="none"> <circle cx="335.5" cy="335.5" r="335.5" fill="#CD9827"></circle> <path fill-rule="evenodd" clip-rule="evenodd" d="M224.162 249.334C163.919 272.602 114.348 291.919 114.006 292.26C113.423 292.838 157.195 308.978 159.345 308.978C159.886 308.978 161.079 307.225 161.995 305.082C163.864 300.709 164.059 300.629 174.683 299.825C180.281 299.402 181.925 299.555 182.77 300.575C183.961 302.014 184.02 301.986 175.915 303.783C173.286 304.366 170.619 305.118 169.988 305.453C169.359 305.788 167.561 309.17 165.994 312.97C164.426 316.768 160.951 325.202 158.271 331.711C148.817 354.664 140.933 380.4 138.607 395.895C138.089 399.343 137.666 405.543 137.666 409.674V417.184L142.23 419.277C149.128 422.439 158.473 423.635 165.892 422.306C172.747 421.077 179.241 418.551 179.812 416.892C180.122 415.994 184.867 337.448 185.695 319.521L185.912 314.807L200.256 311.496C208.145 309.676 215.068 308.168 215.641 308.146C216.418 308.117 216.455 308.761 215.786 310.685C214.958 313.066 214.015 313.542 203.549 316.85C197.312 318.822 192.552 320.764 192.972 321.165C193.936 322.085 210.273 327.266 279.574 348.633L334.986 365.717L399.104 345.968C447.125 331.177 474.946 322.035 509.922 309.553C535.607 300.386 556.34 292.606 555.996 292.263C555.08 291.353 336.203 206.967 334.843 207C334.212 207.015 284.405 226.066 224.162 249.334ZM202.161 376.811L202.43 414.036L204.794 419.096C215.298 441.593 256.086 459.377 308.05 464.121C320.895 465.293 349.102 465.293 361.947 464.121C413.733 459.394 453.804 442.105 464.78 419.755L467.568 414.077L467.829 376.833L468.089 339.59L465.656 340.302C464.317 340.694 434.372 349.92 399.11 360.807L334.999 380.6L270.887 360.807C235.626 349.92 205.677 340.693 204.335 340.3L201.893 339.585L202.161 376.811Z" fill="white"></path> </svg> 