<?xml version="1.0" encoding="UTF-8"?> <svg xmlns="http://www.w3.org/2000/svg" width="830" height="830" viewBox="0 0 830 830" fill="none"> <circle cx="415" cy="415" r="415" fill="#CD9827"></circle> <path d="M478.049 301.509C472.277 301.509 467.049 301.509 461.821 301.509C453.228 301.441 446.759 297.677 443.156 289.85C439.477 281.848 440.956 274.366 446.789 267.843C468.253 243.824 489.732 219.852 511.226 195.925C517.051 189.463 524.809 189.325 530.558 195.718C552.277 219.818 573.924 243.983 595.5 268.211C601.211 274.627 602.399 282.108 598.781 289.942C595.216 297.608 588.862 301.364 580.43 301.494C575.064 301.571 569.752 301.494 563.941 301.494V306.615C563.941 388.635 563.711 470.656 564.125 552.677C564.217 570.814 551.5 584.811 532.812 583.707C524.157 583.193 515.449 583.638 506.749 583.6C504.953 583.631 503.158 583.511 501.383 583.239C487.21 580.74 478.049 569.633 478.042 554.877C478.042 472.228 478.042 389.578 478.042 306.929L478.049 301.509Z" fill="white"></path> <path d="M361.534 460.822C361.534 429.782 361.534 398.747 361.534 367.717C361.534 349.856 373.147 338.297 391.054 338.281C400.375 338.281 409.696 338.235 419.025 338.281C435.399 338.366 447.387 350.201 447.387 366.575C447.444 429.432 447.444 492.268 447.387 555.084C447.387 571.688 435.445 583.493 418.818 583.569C409.246 583.615 399.67 583.615 390.088 583.569C373.477 583.493 361.572 571.642 361.549 555.069C361.539 523.666 361.534 492.25 361.534 460.822Z" fill="white"></path> <path d="M245.018 491.59C245.018 470.638 245.018 449.686 245.018 428.733C245.018 411.356 256.731 399.604 274.063 399.604C283.645 399.604 293.227 399.543 302.801 399.604C318.722 399.719 330.803 411.563 330.841 427.422C330.938 470.201 330.938 512.982 330.841 555.766C330.841 571.457 318.783 583.362 303.153 583.553C292.943 583.661 282.717 583.676 272.491 583.553C268.874 583.552 265.292 582.837 261.952 581.448C258.612 580.059 255.578 578.025 253.027 575.461C250.475 572.897 248.454 569.854 247.081 566.507C245.708 563.16 245.01 559.575 245.026 555.957C244.972 534.502 245.018 513.046 245.018 491.59Z" fill="white"></path> </svg> 