<?xml version="1.0" encoding="UTF-8"?> <svg xmlns="http://www.w3.org/2000/svg" width="830" height="830" viewBox="0 0 830 830" fill="none"> <circle cx="415" cy="415" r="415" fill="#CD9827"></circle> <path fill-rule="evenodd" clip-rule="evenodd" d="M448.881 432.387C441.693 452.454 441.274 476.978 447.77 497.415C450.454 505.864 456.768 518.264 458.584 518.656C459.106 518.769 485.02 518.873 516.17 518.887L572.808 518.915L602.101 468.166C633.872 413.125 636.371 408.107 640.202 391.67C644.639 372.629 644.321 362.183 637.26 294.622C628.519 210.995 629.577 216.4 620.854 210.752C614.308 206.514 608.249 205.953 601.798 208.988C596.431 211.511 591.567 218.019 590.846 223.639C590.593 225.609 592.918 251.78 596.012 281.796C599.106 311.811 601.494 339.044 601.318 342.313C600.731 353.205 598.738 357.607 578.471 392.746C560.768 423.438 559.847 424.875 556.331 427.26C552.349 429.961 545.743 430.214 541.603 427.824C537.837 425.65 534.844 419.962 535.079 415.425C535.283 411.463 536.175 409.75 554.907 377.304L574.521 343.331L574.854 337.882C575.39 329.116 569.808 321.343 561.356 319.089C556.082 317.681 547.607 319.842 543.82 323.56C542.069 325.279 535.789 335.384 526.807 350.936L512.567 375.589L505.378 377.812C480.209 385.597 457.935 407.112 448.881 432.387ZM426.133 560.482C425.911 563.703 425.751 582.763 425.779 602.836C425.835 642.499 426.01 643.629 432.697 647.489C435.97 649.379 442.75 649.579 504.468 649.604C541.954 649.62 573.624 649.59 574.845 649.538C579.31 649.349 582.709 647.175 585.148 642.95C587.339 639.155 587.491 636.527 587.466 602.611C587.453 582.658 587.351 564.01 587.24 561.174C586.923 553.059 581.919 547.518 574.589 547.163C568.983 546.894 438.153 546.897 436.354 547.167C434.408 547.46 428.307 551.652 427.258 553.416C426.863 554.081 426.356 557.26 426.133 560.482Z" fill="white"></path> <path fill-rule="evenodd" clip-rule="evenodd" d="M380.678 432.387C387.866 452.454 388.285 476.978 381.789 497.415C379.105 505.864 372.791 518.264 370.975 518.656C370.453 518.769 344.539 518.873 313.388 518.887L256.751 518.915L227.458 468.166C195.687 413.125 193.188 408.107 189.357 391.67C184.92 372.629 185.238 362.183 192.299 294.622C201.04 210.995 199.982 216.4 208.705 210.752C215.251 206.514 221.31 205.953 227.761 208.988C233.128 211.511 237.992 218.019 238.713 223.639C238.965 225.609 236.641 251.78 233.547 281.796C230.453 311.811 228.064 339.044 228.241 342.313C228.827 353.205 230.821 357.607 251.088 392.746C268.791 423.438 269.712 424.875 273.228 427.26C277.21 429.961 283.816 430.214 287.956 427.824C291.722 425.65 294.715 419.962 294.48 415.425C294.276 411.463 293.384 409.75 274.652 377.304L255.038 343.331L254.705 337.882C254.169 329.116 259.751 321.343 268.203 319.089C273.477 317.681 281.952 319.842 285.739 323.56C287.49 325.279 293.77 335.384 302.752 350.936L316.992 375.589L324.18 377.812C349.35 385.597 371.624 407.112 380.678 432.387ZM403.426 560.482C403.648 563.703 403.808 582.763 403.78 602.836C403.724 642.499 403.548 643.629 396.862 647.489C393.589 649.379 386.809 649.579 325.091 649.604C287.605 649.62 255.935 649.59 254.713 649.538C250.248 649.349 246.85 647.175 244.411 642.95C242.22 639.155 242.068 636.527 242.093 602.611C242.106 582.658 242.208 564.01 242.319 561.174C242.636 553.059 247.64 547.518 254.97 547.163C260.576 546.894 391.406 546.897 393.205 547.167C395.151 547.46 401.252 551.652 402.301 553.416C402.696 554.081 403.202 557.26 403.426 560.482Z" fill="white"></path> </svg> 