<?xml version="1.0" encoding="UTF-8"?> <svg xmlns="http://www.w3.org/2000/svg" width="671" height="671" viewBox="0 0 671 671" fill="none"> <circle cx="335.5" cy="335.5" r="335.5" fill="#CD9827"></circle> <path fill-rule="evenodd" clip-rule="evenodd" d="M192.748 169.574C166.539 184.714 144.616 197.757 144.029 198.559C143.443 199.362 142.98 200.981 143.001 202.158C143.022 203.335 148.052 212.94 154.179 223.503L165.319 242.709L159.584 252.017C153.246 262.307 151.732 265.928 150.473 273.811C149.377 280.67 150.597 288.722 153.752 295.444C157.691 303.835 198.947 374.781 200.799 376.347C205.327 380.174 212.902 375.658 216.237 367.142C217.229 364.611 217.494 362.243 217.155 358.956C216.74 354.937 215.167 351.725 205.183 334.503C192.769 313.089 191.844 310.486 195.58 307.461C198.533 305.07 202.641 305.422 204.989 308.267C206.064 309.571 212.026 319.496 218.236 330.322L229.527 350.007L230.108 346.781C231.934 336.647 240.54 329.289 250.533 329.32C254.784 329.333 261.881 331.251 265.434 333.347L268.262 335.015L268.548 312.217L268.836 289.418L271.763 283.683C278.188 271.094 292.714 265.81 305.434 271.436L309.224 273.112L310.696 269.846C312.698 265.409 319.011 259.693 324.06 257.745C326.567 256.779 330.297 256.142 333.452 256.142C337.757 256.142 338.603 255.92 338.214 254.888C337.955 254.198 331.272 242.364 323.362 228.589C311.213 207.431 308.129 202.681 303.484 197.977C296.598 191.004 288.676 186.91 277.734 184.67C273.428 183.788 269.824 182.952 269.725 182.811C269.627 182.671 264.72 174.145 258.821 163.866C252.921 153.586 247.327 144.462 246.39 143.588C245.451 142.715 243.72 142.01 242.542 142.023C241.282 142.037 220.778 153.382 192.748 169.574ZM427.509 143.491C426.689 144.311 421.165 153.436 415.235 163.769C409.305 174.102 404.351 182.692 404.226 182.859C404.102 183.026 400.498 183.863 396.218 184.72C385.337 186.898 377.424 190.981 370.517 197.981C366.115 202.441 362.994 207.08 354.866 221.246L344.713 238.941L353.884 254.859C362.81 270.353 363.113 270.759 365.291 270.149C366.521 269.804 370.162 269.532 373.382 269.546C378.245 269.566 379.988 269.982 383.673 272.003C391.881 276.504 397.349 284.751 398.503 294.372L399.077 299.153L401.702 297.728C405.94 295.428 416.621 295.745 421.87 298.327C427.17 300.935 432.232 305.996 434.875 311.332C436.89 315.399 436.958 316.139 437.364 338.509L437.782 361.504L452.725 335.582C460.944 321.325 468.443 308.813 469.389 307.778C471.528 305.44 475.742 305.292 478.42 307.461C482.161 310.489 481.237 313.08 468.723 334.665C458.551 352.212 457.09 355.203 456.763 359.146C456.261 365.194 458.236 370.102 462.898 374.399C467.016 378.194 470.285 378.812 473.201 376.347C475.053 374.781 516.31 303.835 520.248 295.444C523.403 288.722 524.623 280.67 523.527 273.811C522.268 265.928 520.754 262.307 514.416 252.017L508.681 242.709L519.821 223.503C526.19 212.523 530.978 203.352 530.999 202.091C531.02 200.876 530.378 199.12 529.573 198.188C527.12 195.346 433.772 142 431.252 142C430.013 142 428.33 142.671 427.509 143.491ZM327.982 270.446C326.473 271.217 324.403 273.017 323.382 274.447L321.527 277.047L321.109 330.983C320.879 360.647 320.388 385.526 320.018 386.269C319.247 387.816 315.903 389.517 313.635 389.517C312.788 389.517 311.206 388.798 310.12 387.919L308.145 386.321L307.727 338.643C307.319 292.128 307.267 290.909 305.584 288.657C302.395 284.388 299.6 282.901 294.764 282.901C289.292 282.901 286.36 284.787 283.682 290.025L281.8 293.708V349.914V406.12L279.596 407.853C276.698 410.132 274.061 410.044 271.183 407.569L268.836 405.553L268.418 380.12L268 354.687L265.718 351.243C262.846 346.907 256.924 343.381 251.665 342.876C248.168 342.54 247.348 342.774 245.481 344.641L243.327 346.795V396.964C243.327 430.259 243.637 448.624 244.249 451.565C246.923 464.424 254.441 473.181 269.949 481.5L280.081 486.935L280.104 506.415L280.127 525.895L282.18 527.947L284.233 530H340.346H396.458L398.511 527.947L400.564 525.895L400.57 505.997L400.576 486.099L405.642 481.926C413.437 475.504 417.873 469.197 421.767 458.995C423.527 454.387 423.555 453.408 423.795 386.754L424.039 319.186L422.239 315.985C420.127 312.226 415.293 309.241 411.323 309.243C407.696 309.245 403.239 311.535 401.042 314.527C399.374 316.799 399.293 318.157 398.891 351.185L398.473 385.483L396.126 387.5C393.256 389.968 390.612 390.064 387.74 387.805L385.562 386.093L385.327 339.096C385.1 293.829 385.029 291.995 383.418 289.26C380.721 284.681 377.677 282.901 372.546 282.901C367.709 282.901 364.915 284.388 361.725 288.657C360.042 290.909 359.99 292.128 359.582 338.643L359.164 386.321L357.189 387.919C353.896 390.585 348.867 389.437 347.128 385.623C346.479 384.199 346.2 367.832 346.2 331.279C346.2 273.593 346.348 275.291 340.972 271.462C337.647 269.096 331.564 268.62 327.982 270.446Z" fill="white"></path> </svg> 