<?xml version="1.0" encoding="UTF-8"?> <svg xmlns="http://www.w3.org/2000/svg" width="671" height="671" viewBox="0 0 671 671" fill="none"> <circle cx="335.5" cy="335.5" r="335.5" fill="#CD9827"></circle> <path fill-rule="evenodd" clip-rule="evenodd" d="M420.338 167.734C420.338 168.108 419.684 172.868 418.885 178.312C417.22 189.655 415.356 193.924 410.404 197.737C404.466 202.309 395.01 202.576 388.632 198.351C387.138 197.361 382.968 192.646 379.366 187.872C374.812 181.836 372.561 179.39 371.974 179.843C371.51 180.2 367.09 183.507 362.151 187.19C357.213 190.874 353.049 193.986 352.898 194.107C352.747 194.227 355.274 197.879 358.512 202.223C366.087 212.381 367.184 214.688 367.164 220.406C367.132 229.726 361.44 236.939 352.543 238.935C349.776 239.556 346.998 239.421 338.614 238.257C332.855 237.458 328.012 236.935 327.853 237.094C327.504 237.443 323.987 261.405 324.252 261.625C324.354 261.709 328.317 262.318 333.058 262.976C345.433 264.695 348.913 265.914 352.938 269.935C359.439 276.43 360.32 286.211 355.095 293.887C354.045 295.429 349.383 299.565 344.736 303.077L336.288 309.463L343.884 319.55C349.229 326.646 351.732 329.44 352.326 328.971C358.554 324.064 368.805 316.885 370.759 316.062C374.004 314.697 381.178 314.767 384.573 316.198C387.865 317.586 391.795 320.975 393.712 324.08C396.561 328.694 396.874 332.777 395.237 343.99C394.415 349.615 393.878 354.354 394.043 354.519C394.403 354.879 418.33 358.403 418.59 358.135C418.69 358.032 419.45 353.297 420.278 347.612C421.436 339.668 422.235 336.445 423.731 333.695C427.476 326.809 434.139 323.284 442.055 324.003C448.683 324.604 451.877 327.01 459.7 337.296L466.378 346.074L476.447 338.478C483.53 333.134 486.318 330.63 485.85 330.035C481.017 323.891 473.932 313.726 473.111 311.757C471.829 308.688 471.749 302.354 472.943 298.355C473.481 296.549 475.231 293.949 477.432 291.683C480.301 288.73 481.921 287.713 485.349 286.715C489.51 285.503 490.032 285.512 500.433 286.954C506.359 287.776 511.313 288.343 511.441 288.214C511.755 287.9 515.225 263.939 514.988 263.722C514.885 263.628 510.115 262.845 504.386 261.982C492.796 260.236 488.566 258.521 484.894 254.078C481.034 249.408 479.713 241.88 481.742 236.122C483.454 231.265 485.359 229.197 494.443 222.331C500.417 217.816 502.836 215.581 502.384 214.993C502.027 214.529 498.724 210.105 495.044 205.162C491.363 200.219 488.259 196.056 488.144 195.91C488.029 195.765 484.007 198.554 479.207 202.109C474.407 205.664 469.262 208.937 467.774 209.384C457.356 212.508 446.524 206.777 443.561 196.573C442.481 192.855 442.504 191.982 443.943 181.871C444.785 175.96 445.343 170.992 445.184 170.833C444.943 170.591 422.573 167.132 420.877 167.074C420.58 167.064 420.338 167.361 420.338 167.734ZM330.903 185.486C316.589 187.082 307.956 189.079 297.14 193.298C275.173 201.867 254.025 219.729 242.097 239.789C230.347 259.55 224.998 280.306 225.864 302.779C227.279 339.485 244.347 370.704 274.973 392.605C283.966 399.036 288.331 403.727 291.408 410.27C294.527 416.9 295.342 423.323 295.351 441.334C295.358 454.214 295.458 455.223 297.056 458.608C299.027 462.781 301.588 465.353 306.12 467.711L309.352 469.393H339.164C371.746 469.393 371.206 469.456 376.406 465.068C382.566 459.87 383.702 455.17 383.702 434.9C383.702 419.061 384.369 414.806 387.856 408.391C390.781 403.01 395.361 398.31 402.653 393.209C409.561 388.375 418.599 380.458 423.959 374.546C426.581 371.653 426.87 371.086 425.549 371.423C423.053 372.058 385.17 366.403 383.18 365.098C380.13 363.098 380 361.354 381.918 348.16C384.247 332.135 384.234 331.562 381.492 329.253C377.595 325.971 376.676 326.339 362.892 336.704C357.57 340.706 352.479 344.165 351.578 344.391C347.763 345.35 346.618 344.256 334.385 327.964C327.802 319.198 322.094 311.171 321.701 310.128C320.232 306.233 321.366 304.837 333.329 295.822C339.591 291.104 344.919 286.705 345.171 286.048C345.955 284.004 345.677 281.044 344.549 279.433C343.078 277.33 340.649 276.688 327.392 274.897C321.114 274.05 315.231 273.071 314.316 272.723C313.402 272.375 312.157 271.129 311.55 269.954C310.526 267.973 310.654 266.371 313.315 247.862C315.106 235.401 316.6 227.27 317.295 226.208C319.417 222.967 320.761 222.861 334.245 224.867C350.403 227.271 350.801 227.264 353.108 224.519C356.348 220.665 356.2 220.279 346.348 206.959C342.491 201.747 338.975 196.804 338.532 195.977C337.041 193.188 337.583 190.729 340.242 188.219C341.624 186.914 342.756 185.662 342.756 185.438C342.756 185.021 334.783 185.053 330.903 185.486ZM295.312 229.068C296.894 231.54 298.194 233.904 298.203 234.322C298.211 234.741 296.171 236.586 293.671 238.424C288.079 242.533 280.112 250.851 276.424 256.429C272.396 262.522 267.672 272.941 265.765 279.938C264.29 285.347 264.104 287.578 264.149 299.35C264.196 311.693 264.339 313.113 266.151 319.051C273.516 343.195 287.789 359.071 311.629 369.637C315.253 371.243 320.102 373.841 322.405 375.412C326.585 378.262 333.203 384.782 336.059 388.866C340.599 395.356 344.292 405.726 345.212 414.57L345.641 418.704H339.17H332.699L332.69 416.008C332.667 408.739 327.55 397.223 321.767 391.424C316.794 386.437 313.647 384.352 305.401 380.58C292.709 374.773 285.067 369.618 276.663 361.195C264.508 349.012 256.23 333.443 252.456 315.666C250.705 307.42 250.72 289.604 252.484 281.735C257.575 259.02 269.123 240.836 286.666 227.909C289.156 226.075 291.472 224.575 291.814 224.575C292.156 224.575 293.73 226.597 295.312 229.068ZM431.209 226.664C437.316 228.804 441.913 231.746 446.558 236.486C461.274 251.505 460.986 274.649 445.898 289.526C431.138 304.081 407.758 304.015 393.134 289.378C378.253 274.483 378.055 251.402 392.681 236.491C398.62 230.437 406.575 226.208 414.232 225.033C418.202 224.424 427.315 225.299 431.209 226.664ZM219.387 320.269C218.252 325.052 216.272 327.659 212.32 329.575C207.074 332.117 204.005 331.382 195.274 325.498C191.246 322.783 187.627 320.472 187.232 320.363C186.837 320.255 183.999 322.698 180.926 325.792L175.339 331.418L179.591 337.558C185.824 346.558 186.358 347.804 186.016 352.539C185.457 360.28 182.243 362.7 168.734 365.548L161.012 367.176V374.873V382.57L164.065 383.051C165.744 383.315 169.956 384.195 173.426 385.005C182.877 387.214 186.154 390.699 186.154 398.541C186.154 401.853 185.705 402.812 180.699 410.175L175.244 418.198L180.976 423.936L186.708 429.673L194.494 424.368C202.26 419.077 202.293 419.063 207.095 419.063C215.198 419.063 218.059 422.291 220.544 434.237C221.441 438.546 222.334 442.638 222.53 443.33C222.839 444.419 223.84 444.588 229.98 444.588C233.881 444.588 237.252 444.298 237.471 443.944C237.689 443.589 238.695 439.464 239.705 434.776C241.728 425.387 243.253 422.457 247.3 420.18C250.203 418.547 255.663 418.206 258.217 419.498C259.08 419.935 262.945 422.428 266.807 425.038L273.827 429.784L280.316 423.346C286.235 417.472 286.769 416.717 286.388 414.749C285.728 411.34 281.278 405.262 277.186 402.178C275.123 400.623 271.259 397.737 268.598 395.764L263.762 392.178L261.281 395.915C254.427 406.233 242.937 412.233 230.028 412.233C219.441 412.233 210.677 408.631 203.418 401.298C190.163 387.907 188.851 367.412 200.245 351.75C204.656 345.688 213.731 339.801 221.397 338.03C223.436 337.559 224.945 336.808 224.945 336.264C224.945 335.744 224.137 332.205 223.149 328.4C222.162 324.595 221.349 320.789 221.343 319.943C221.318 316.603 220.214 316.787 219.387 320.269ZM438.48 336.882C437.199 337.22 435.668 338.232 435.08 339.131C434.096 340.633 430.027 365.369 430.659 366.001C431.23 366.574 438.664 354.146 442.055 346.95C445.345 339.97 445.501 339.39 444.405 338.178C442.862 336.472 441.318 336.134 438.48 336.882ZM345.629 440.993V450.34H339.164H332.699V440.993V431.646H339.164H345.629V440.993ZM314.022 481.976V488.447H339.164H364.306V481.976V475.505H339.164H314.022V481.976ZM314.023 505.882C314.024 511.295 315.447 514.435 319.294 517.515L322.053 519.723L337.253 519.947C345.613 520.07 353.511 519.973 354.803 519.732C357.731 519.184 362.05 515.467 363.336 512.388C363.87 511.109 364.306 508.111 364.306 505.726V501.389H339.164H314.022L314.023 505.882Z" fill="white"></path> </svg> 