<?xml version="1.0" encoding="UTF-8"?> <svg xmlns="http://www.w3.org/2000/svg" width="830" height="830" viewBox="0 0 830 830" fill="none"> <circle cx="415" cy="415" r="415" fill="#CD9827"></circle> <path fill-rule="evenodd" clip-rule="evenodd" d="M504.613 143.47C494.944 146.674 488.216 153.012 483.565 163.299C481.945 166.884 481.489 169.578 481.472 175.672C481.451 182.502 481.797 184.196 484.274 189.419C497.054 216.366 533.708 215.825 546.298 188.503C547.787 185.27 548.205 182.496 548.231 175.672C548.26 167.895 547.98 166.381 545.604 161.487C542.171 154.413 535.486 147.769 528.833 144.818C521.674 141.641 511.791 141.091 504.613 143.47ZM491.364 224.247C480.701 226.384 458.621 233.728 454.313 236.572C448.147 240.642 447.868 242.176 448.173 270.295C448.434 294.445 448.511 295.368 450.487 298.138C454.774 304.15 452.896 303.979 514.886 303.979C570.851 303.979 570.98 303.975 574.533 301.978C576.83 300.686 578.759 298.601 579.968 296.101C581.739 292.443 581.828 290.848 581.572 267.467C581.259 238.952 581.396 239.441 572.554 235.056C566.01 231.811 549.306 226.475 540.069 224.68C536.037 223.896 531.812 223.058 530.677 222.817C528.619 222.379 528.616 222.396 528.616 234.858C528.616 244.475 528.274 248.058 527.129 250.474C522.372 260.5 507.834 260.434 502.961 250.365C501.412 247.166 501.128 244.706 501.128 234.495C501.128 227.85 500.819 222.447 500.441 222.489C500.062 222.532 495.979 223.323 491.364 224.247ZM304.87 259.863C295.2 263.067 288.472 269.405 283.821 279.692C282.201 283.277 281.745 285.971 281.728 292.065C281.708 298.895 282.053 300.589 284.53 305.812C297.311 332.759 333.964 332.218 346.554 304.896C348.043 301.663 348.461 298.889 348.487 292.065C348.516 284.288 348.236 282.774 345.86 277.88C342.427 270.806 335.742 264.162 329.089 261.211C321.93 258.034 312.048 257.484 304.87 259.863ZM435.855 333.363C433.761 334.47 431.712 336.577 430.586 338.785C428.767 342.354 428.744 343.972 428.744 471.237C428.744 598.553 428.766 600.118 430.588 603.692C431.776 606.021 433.722 607.967 436.05 609.155C439.587 610.96 441.307 611 514.872 611C588.437 611 590.157 610.96 593.694 609.155C596.022 607.967 597.968 606.021 599.156 603.692C600.978 600.118 601 598.553 601 471.237C601 343.92 600.978 342.356 599.156 338.782C597.968 336.453 596.022 334.506 593.694 333.318C590.154 331.513 588.479 331.474 514.68 331.514C441.42 331.553 439.184 331.606 435.855 333.363ZM291.621 340.64C280.957 342.777 258.877 350.121 254.569 352.965C248.404 357.035 248.124 358.569 248.429 386.688C248.69 410.838 248.767 411.761 250.743 414.531C255.03 420.543 253.153 420.372 315.142 420.372C371.107 420.372 371.236 420.368 374.789 418.371C377.086 417.079 379.015 414.994 380.224 412.494C381.996 408.835 382.084 407.241 381.828 383.86C381.515 355.345 381.652 355.834 372.81 351.449C366.266 348.204 349.562 342.868 340.325 341.073C336.294 340.289 332.068 339.451 330.933 339.21C328.875 338.772 328.872 338.789 328.872 351.251C328.872 360.868 328.53 364.451 327.385 366.867C322.629 376.892 308.09 376.827 303.217 366.758C301.668 363.559 301.384 361.099 301.384 350.888C301.384 344.243 301.075 338.84 300.697 338.882C300.32 338.925 296.235 339.716 291.621 340.64ZM236.111 449.756C234.017 450.863 231.969 452.97 230.843 455.178C229.044 458.706 229 460.471 229 529.433C229 598.424 229.043 600.16 230.844 603.692C232.032 606.021 233.978 607.967 236.306 609.155C239.843 610.96 241.563 611 315.128 611C388.693 611 390.413 610.96 393.95 609.155C396.278 607.967 398.224 606.021 399.412 603.692C401.213 600.16 401.256 598.424 401.256 529.433C401.256 460.442 401.213 458.707 399.412 455.175C398.224 452.846 396.278 450.899 393.95 449.711C390.41 447.906 388.736 447.867 314.936 447.907C241.676 447.946 239.44 447.999 236.111 449.756Z" fill="white"></path> </svg> 