<?xml version="1.0" encoding="UTF-8"?> <svg xmlns="http://www.w3.org/2000/svg" width="671" height="671" viewBox="0 0 671 671" fill="none"> <circle cx="335.5" cy="335.5" r="335.5" fill="#CD9827"></circle> <path fill-rule="evenodd" clip-rule="evenodd" d="M301.761 141.058C284.449 145.705 273.223 162.438 276.04 179.391C279.984 203.116 306.656 216.244 326.917 204.433L330.375 202.417L326.766 206.425C322.081 211.629 319.818 217.499 319.784 224.532C319.77 227.482 321.397 240.699 323.4 253.903C325.402 267.107 326.925 277.999 326.786 278.107C326.646 278.216 322.21 279.422 316.927 280.788C290.029 287.741 285.058 289.299 281.056 292.028C273.376 297.267 269.282 306.087 269.282 317.393V322.978H264.46H259.639L248.313 274.904C241.226 244.821 236.471 226.132 235.604 224.963C234.844 223.936 233.294 222.404 232.159 221.559C229.321 219.448 223.163 219.46 220.289 221.583C217.153 223.899 214.721 227.88 214.721 230.698C214.721 232.069 219.562 253.623 225.479 278.598C231.396 303.572 236.237 324.378 236.236 324.833C236.235 325.288 234.259 326.688 231.844 327.946C225.299 331.356 219.073 337.831 215.89 344.541C212.393 351.912 190.038 441.245 190 448.001C189.964 454.37 191.947 459.457 196.327 464.234C205.562 474.308 220.987 475.012 230.819 465.808C232.743 464.007 234.915 461.386 235.647 459.983C236.379 458.579 242.867 436.573 250.065 411.081C257.262 385.589 264.058 362.364 265.167 359.47C270.6 345.293 282.966 333.011 297.839 327.022C306.785 323.419 311.623 323.033 348.174 323.005L382.111 322.978L382.534 320.105C382.767 318.525 383.381 308.697 383.899 298.264L384.84 279.296L380.405 248.899C377.728 230.549 375.366 216.89 374.444 214.433C372.285 208.682 366.424 202.559 360.109 199.46C355.476 197.187 354.348 196.952 348.038 196.952C341.817 196.952 340.572 197.202 336.326 199.3L331.575 201.648L335.309 197.711C337.363 195.546 339.734 192.421 340.58 190.767C346.118 179.928 345.804 166.839 339.76 156.557C337.318 152.403 330.475 145.908 326.308 143.789C318.888 140.015 309.525 138.973 301.761 141.058ZM430.56 197.751C422.517 200.258 415.059 207.566 412.69 215.26C411.806 218.13 410.575 234.919 408.062 278.382C404.329 342.952 404.675 340.248 399.674 343.966C397.545 345.549 396.717 345.585 354.334 345.963C311.446 346.344 311.134 346.359 306.764 348.117C296.985 352.052 288.623 360.751 285.772 369.957C285.095 372.139 278.234 396.161 270.522 423.339L256.502 472.753L357.823 472.948C457.317 473.139 459.197 473.115 462.111 471.632C464.148 470.597 465.571 469.094 466.646 466.841C468.102 463.792 468.719 454.397 475.382 333.936C479.325 262.643 482.293 203.317 481.977 202.102C481.661 200.886 480.67 199.231 479.775 198.422C478.258 197.053 476.635 196.941 456.133 196.797C438.729 196.675 433.373 196.875 430.56 197.751ZM263.139 506.835C257.361 518.335 256.772 521.02 259.002 525.706C262.136 532.289 270.569 534.05 276.228 529.303C277.82 527.967 281.138 522.269 286.241 512.103C290.439 503.742 293.873 496.725 293.873 496.51C293.873 496.295 288.169 496.12 281.198 496.12H268.523L263.139 506.835ZM431.429 496.589C431.429 498.251 448.014 528.535 449.608 529.787C455.708 534.57 465.331 531.195 467.403 523.546C468.47 519.605 467.712 517.081 462.099 505.888L457.201 496.12H444.315C437.228 496.12 431.429 496.331 431.429 496.589Z" fill="white"></path> </svg> 