<?xml version="1.0" encoding="UTF-8"?> <svg xmlns="http://www.w3.org/2000/svg" width="671" height="671" viewBox="0 0 671 671" fill="none"> <circle cx="335.5" cy="335.5" r="335.5" fill="#CD9827"></circle> <path fill-rule="evenodd" clip-rule="evenodd" d="M302.663 174.18L270.332 224.361L256.457 227.997C248.827 229.996 222.652 236.883 198.292 243.299L154 254.966L181.041 288.088C195.915 306.305 208.15 321.295 208.231 321.398C208.313 321.502 211.572 319.963 215.474 317.978C225.135 313.064 233.128 311.145 243.929 311.145C255.973 311.145 265.887 313.985 276.287 320.414L279.392 322.333L282.79 317.576C291.123 305.91 304.478 296.962 319.918 292.7C326.601 290.856 344.399 290.856 351.082 292.7C366.522 296.962 379.877 305.91 388.21 317.576L391.608 322.333L394.713 320.414C405.113 313.985 415.027 311.145 427.071 311.145C437.872 311.145 445.865 313.064 455.526 317.978C459.428 319.963 462.687 321.502 462.769 321.398C462.85 321.295 475.085 306.305 489.959 288.088L517 254.966L472.708 243.299C448.348 236.883 422.173 229.996 414.543 227.997L400.668 224.361L368.337 174.18C350.555 146.581 335.778 124 335.5 124C335.222 124 320.445 146.581 302.663 174.18ZM324.787 314.563C310.038 318.13 297.588 330.65 293.704 345.823C291.051 356.188 291.985 365.133 296.759 375.07C304.075 390.297 318.603 399.435 335.5 399.435C359.493 399.435 378.787 380.015 378.787 355.863C378.787 337.062 364.298 318.867 345.872 314.528C339.984 313.142 330.599 313.157 324.787 314.563ZM231.761 335.21C222.419 338.403 215.508 343.888 210.583 352.018C206.513 358.735 205.267 363.398 205.267 371.911C205.267 380.364 206.381 384.563 210.479 391.546C216.649 402.064 229.765 410.309 240.328 410.309C242.945 410.309 243.836 409.858 246.35 407.257C252.871 400.51 265.095 393.412 273.39 391.557C277.343 390.674 277.568 390.49 279.275 386.765C281.943 380.943 283.006 372.223 281.841 365.711C279.269 351.332 268.013 338.698 254.202 334.689C248.106 332.92 237.757 333.16 231.761 335.21ZM416.006 334.935C402.385 339.289 391.693 351.544 389.159 365.711C387.994 372.223 389.057 380.943 391.725 386.765C393.432 390.49 393.657 390.674 397.61 391.557C405.905 393.412 418.129 400.51 424.65 407.257C427.164 409.858 428.055 410.309 430.672 410.309C437.786 410.309 448.214 405.54 454.369 399.473C458.453 395.446 462.52 388.884 464.422 383.249C466.25 377.835 466.217 365.898 464.358 360.354C460.215 347.995 450.228 338.35 437.797 334.702C432.266 333.08 421.452 333.195 416.006 334.935ZM279.61 412.979C266.783 416.425 255.617 427.6 252.203 440.407C251.421 443.342 251.181 451.317 251.175 474.617L251.166 505H335.5H419.834L419.825 474.617C419.819 451.317 419.579 443.342 418.797 440.407C415.338 427.43 404.147 416.345 391.07 412.942C384.722 411.29 285.773 411.323 279.61 412.979ZM193.897 422.643C182.365 425.745 173.935 433.543 169.684 445.04C168.138 449.222 168.036 450.908 167.752 477.227L167.452 505H198.114H228.776V474.106C228.776 437.934 228.923 436.76 235.242 422.425C235.865 421.012 199.243 421.204 193.897 422.643ZM435.758 422.425C442.077 436.76 442.224 437.934 442.224 474.106V505H472.886H503.548L503.248 477.227C502.964 450.908 502.862 449.222 501.316 445.04C497.007 433.385 488.573 425.673 476.784 422.606C471.061 421.117 435.111 420.959 435.758 422.425Z" fill="white"></path> </svg> 