<?xml version="1.0" encoding="UTF-8"?> <svg xmlns="http://www.w3.org/2000/svg" width="830" height="830" viewBox="0 0 830 830" fill="none"> <circle cx="415" cy="415" r="415" fill="#CD9827"></circle> <path fill-rule="evenodd" clip-rule="evenodd" d="M396 175.603C379.509 177.58 374.299 178.355 366.148 180.041C303.752 192.951 248.449 231.038 213.124 285.427C189.002 322.566 175 370.156 175 415C175 510.522 232.553 597.687 320.584 635.49C410.639 674.161 515.375 653.945 584.508 584.546C648.623 520.184 671.21 426.211 643.045 341C640.408 333.025 636.778 323.223 634.977 319.217L631.703 311.934L617.101 326.269C601.461 341.625 599.204 343 589.634 343C587.085 343 585 343.179 585 343.397C585 343.616 586.805 349.193 589.011 355.792C605.084 403.864 601.55 453.411 578.871 497.964C564.346 526.498 544.066 549.57 518.086 567.115C445.009 616.466 348.187 607.491 285.756 545.579C196.032 456.602 220.318 306.851 333.668 250.15C377.052 228.448 426.968 225.194 474.208 240.989C480.807 243.195 486.384 245 486.603 245C486.821 245 487 242.915 487 240.366C487 230.788 488.369 228.546 503.815 212.813L518.236 198.125L514.868 196.699C513.015 195.915 508.8 194.134 505.5 192.742C489.84 186.136 469.346 180.511 450 177.507C439.976 175.951 403.75 174.673 396 175.603ZM533.268 205.268L503 235.537V263.498V291.459L448.129 346.479C398.528 396.215 393.101 401.973 391.629 406.428C390.733 409.139 390 412.996 390 415C390 424.91 397.272 435.201 406.496 438.344C412.568 440.413 416.173 440.428 423.068 438.413C428.303 436.884 430.495 434.836 483.521 381.913L538.541 327H566.502H594.463L624.732 296.732C652.108 269.355 655 266.15 655 263.186C655 261.04 654.153 259.062 652.545 257.455C650.106 255.015 649.97 255 630.445 255H610.799L615.878 249.443C621.097 243.733 624 236.961 624 230.497C624 221.088 616.517 210.727 607.504 207.656C597.641 204.295 589.025 206.382 580.464 214.206L575 219.201V199.555C575 180.03 574.985 179.894 572.545 177.455C570.938 175.847 568.96 175 566.814 175C563.85 175 560.645 177.892 533.268 205.268ZM394.749 288.556C378.563 291.076 358.27 299.051 344.5 308.303C326.34 320.506 310.206 338.647 300.743 357.5C291.215 376.484 287.541 392.487 287.541 415C287.541 437.526 291.229 453.578 300.753 472.5C312.638 496.112 334.512 517.73 358.904 529.971C374.141 537.617 397.317 543 415 543C432.683 543 455.859 537.617 471.096 529.971C495.959 517.494 517.494 495.959 529.971 471.096C540.295 450.523 544.86 423.415 541.947 399.974C540.232 386.171 533.353 363.068 529.905 359.529C529.301 358.91 521.194 366.317 507.506 379.994L486.052 401.43L486.658 409.967C489.97 456.625 447.616 494.355 401.775 485.584C362.787 478.124 337.013 440.465 344.416 401.775C349.382 375.823 368.068 354.706 393.5 346.307C400.464 344.007 403.286 343.648 415.29 343.533L429.08 343.402L450.04 322.46C461.568 310.942 471 301.152 471 300.704C471 299.535 461.659 295.57 451.875 292.586C434.352 287.241 412.912 285.729 394.749 288.556Z" fill="white"></path> </svg> 