<?xml version="1.0" encoding="UTF-8"?> <svg xmlns="http://www.w3.org/2000/svg" width="830" height="830" viewBox="0 0 830 830" fill="none"> <circle cx="415" cy="415" r="415" fill="#CD9827"></circle> <path fill-rule="evenodd" clip-rule="evenodd" d="M400.034 274.476C379.595 279.424 362.342 296.791 356.959 317.836C353.282 332.212 354.577 344.619 361.193 358.403C371.332 379.524 391.465 392.197 414.88 392.197C448.13 392.197 474.867 365.261 474.867 331.761C474.867 305.684 454.789 280.447 429.253 274.428C421.094 272.505 408.088 272.527 400.034 274.476ZM271.119 303.115C258.173 307.544 248.595 315.152 241.77 326.428C236.131 335.745 234.403 342.213 234.403 354.021C234.403 365.745 235.948 371.57 241.626 381.256C250.177 395.845 268.353 407.281 282.992 407.281C286.618 407.281 287.853 406.655 291.336 403.047C300.373 393.689 317.313 383.844 328.808 381.271C334.286 380.046 334.599 379.791 336.964 374.625C340.661 366.549 342.134 354.454 340.52 345.422C336.956 325.477 321.357 307.953 302.217 302.393C293.769 299.939 279.429 300.272 271.119 303.115ZM526.445 302.734C507.569 308.773 492.752 325.771 489.241 345.422C487.626 354.454 489.099 366.549 492.797 374.625C495.162 379.791 495.474 380.046 500.953 381.271C512.447 383.844 529.387 393.689 538.425 403.047C541.908 406.655 543.143 407.281 546.769 407.281C556.628 407.281 571.079 400.666 579.61 392.25C585.269 386.666 590.905 377.564 593.541 369.747C596.074 362.238 596.027 345.68 593.452 337.991C587.711 320.849 573.871 307.471 556.643 302.41C548.979 300.16 533.993 300.32 526.445 302.734ZM337.427 410.984C319.652 415.764 304.178 431.264 299.448 449.028C298.364 453.099 298.032 483.352 298.022 515.67L298.01 557.812H414.88H531.751L531.738 515.67C531.729 483.352 531.397 453.099 530.313 449.028C525.519 431.028 510.011 415.652 491.889 410.932C483.092 408.642 345.969 408.687 337.427 410.984ZM218.647 424.388C202.666 428.691 190.984 439.508 185.092 455.453C182.949 461.254 182.809 482.785 182.416 519.289L182 557.812H224.491H266.982V514.961C266.982 464.789 267.186 443.969 275.943 424.086C276.807 422.125 226.056 422.392 218.647 424.388ZM553.817 424.086C562.574 443.969 562.778 464.789 562.778 514.961V557.812H605.269H647.761L647.345 519.289C646.952 482.785 646.811 461.254 644.668 455.453C638.696 439.288 627.008 428.591 610.671 424.336C602.741 422.271 552.922 422.052 553.817 424.086Z" fill="white"></path> </svg> 